<?xml version="1.0" standalone="no"?>
<!DOCTYPE svg PUBLIC "-//W3C//DTD SVG 1.1//EN" "http://www.w3.org/Graphics/SVG/1.1/DTD/svg11.dtd" >
<svg>
<metadata>
Created by FontForge 20110222 at Thu May 24 09:21:04 2012
 By www-data
Copyright (c) 2011 by monocromo. All rights reserved.
</metadata>
<defs>
<font id="Opificio-Rounded" horiz-adv-x="134" >
  <font-face 
    font-family="Opificio"
    font-weight="400"
    font-stretch="normal"
    units-per-em="1000"
    panose-1="2 0 5 6 0 0 0 2 0 4"
    ascent="800"
    descent="-200"
    x-height="500"
    cap-height="700"
    bbox="-156 -264 1065.61 899"
    underline-thickness="50"
    underline-position="-50"
    unicode-range="U+0020-20AC"
  />
    <missing-glyph />
    <glyph glyph-name="space" unicode=" " horiz-adv-x="335" 
 />
    <glyph glyph-name="space" unicode="&#xa0;" horiz-adv-x="335" 
 />
    <glyph glyph-name="C" unicode="C" horiz-adv-x="763" 
d="M98 350q0 -62 24 -117.5t65.5 -97t97 -65.5t117.5 -24t117 24t96 65q18 18 47 60q10 14 28 14q14 0 24.5 -10.5t10.5 -24.5q0 -5 -1 -8.5t-3 -7.5q-16 -33 -55 -72q-51 -51 -119 -80.5t-145 -29.5t-145 29.5t-119 80.5t-80.5 119t-29.5 145t29.5 145t80.5 119t119 80.5
t145 29.5t145 -29.5t119 -80.5q39 -39 56 -74q3 -8 3 -14q0 -14 -10.5 -24.5t-24.5 -10.5q-11 0 -18 6.5t-15 17.5q-24 31 -42 48q-41 42 -96 66t-117 24t-117.5 -24t-97 -65.5t-65.5 -96.5t-24 -117z" />
    <glyph glyph-name="O" unicode="O" horiz-adv-x="803" 
d="M28 350q0 77 29.5 145t80.5 119t119 80.5t145 29.5t145 -29.5t119 -80.5t80.5 -119t29.5 -145t-29.5 -145t-80.5 -119t-119 -80.5t-145 -29.5t-145 29.5t-119 80.5t-80.5 119t-29.5 145zM98 350q0 -62 24 -117.5t65.5 -97t97 -65.5t117.5 -24t117 24t96.5 65.5t65.5 97
t24 117.5t-24 117t-65.5 96.5t-96.5 65.5t-117 24t-117.5 -24t-97 -65.5t-65.5 -96.5t-24 -117z" />
    <glyph glyph-name="D" unicode="D" horiz-adv-x="649" 
d="M40 35v630q0 14 10.5 24.5t24.5 10.5h200q72 0 136 -27.5t111 -74.5t74.5 -111t27.5 -136t-27.5 -136t-74.5 -112t-111 -75.5t-136 -27.5h-200q-14 0 -24.5 10.5t-10.5 24.5zM275 70q58 0 108.5 22t88.5 60.5t60 89.5t22 109t-22 108.5t-60 88.5t-88.5 60t-108.5 22h-165
v-560h165z" />
    <glyph glyph-name="E" unicode="E" horiz-adv-x="519" 
d="M40 665q0 14 10.5 24.5t24.5 10.5h396q14 0 24.5 -10.5t10.5 -24.5t-10.5 -24.5t-24.5 -10.5h-361v-288h291q14 0 24.5 -10.5t10.5 -24.5t-10.5 -24.5t-24.5 -10.5h-291v-202h361q14 0 24.5 -10.5t10.5 -24.5t-10.5 -24.5t-24.5 -10.5h-396q-14 0 -24.5 10.5t-10.5 24.5
v630z" />
    <glyph glyph-name="F" unicode="F" horiz-adv-x="539" 
d="M40 665q0 14 10.5 24.5t24.5 10.5h396q14 0 24.5 -10.5t10.5 -24.5t-10.5 -24.5t-24.5 -10.5h-361v-288h291q14 0 24.5 -10.5t10.5 -24.5t-10.5 -24.5t-24.5 -10.5h-3h-288v-237q0 -14 -10.5 -24.5t-24.5 -10.5t-24.5 10.5t-10.5 24.5v630z" />
    <glyph glyph-name="G" unicode="G" horiz-adv-x="795" 
d="M393 307q0 14 10.5 24.5t24.5 10.5h244q17 0 25.5 -12t8.5 -30q7 -136 -40 -203.5t-117.5 -94t-146.5 -26.5q-77 0 -145 29.5t-119 80.5t-80.5 119t-29.5 145t29.5 145t80.5 119t119 80.5t145 29.5t145 -29.5t119 -80.5q36 -31 37 -55q1 -14 -10 -24.5t-25 -10.5
q-9 0 -15.5 4t-13.5 11l-24 24q-41 42 -96 66t-117 24t-117.5 -24t-97 -65.5t-65.5 -96.5t-24 -117t24 -117.5t65.5 -97t97 -65.5t117.5 -24t115.5 19t89 71.5t29.5 135.5h-205h-3q-14 0 -24.5 10.5t-10.5 24.5z" />
    <glyph glyph-name="M" unicode="M" horiz-adv-x="667" 
d="M558 35v547l-195 -263q-6 -8 -13 -13t-17 -5q-19 0 -30 16l-193 264v-546q0 -14 -10.5 -24.5t-24.5 -10.5t-24.5 10.5t-10.5 24.5v630q0 14 10.5 24.5t24.5 10.5h18q16 0 28 -14l212 -291l214 291q10 14 28 14h18q14 0 24.5 -10.5t10.5 -24.5v-630q0 -14 -10.5 -24.5
t-24.5 -10.5t-24.5 10.5t-10.5 24.5z" />
    <glyph glyph-name="N" unicode="N" horiz-adv-x="546" 
d="M40 665q0 14 10.5 24.5t24.5 10.5h15q20 0 30 -17l316 -543v525q0 14 10.5 24.5t24.5 10.5t24.5 -10.5t10.5 -24.5v-3v-627q0 -14 -10.5 -24.5t-24.5 -10.5h-3h-12q-21 0 -31 19l-315 541v-522v-3q0 -14 -10.5 -24.5t-24.5 -10.5t-24.5 10.5t-10.5 24.5v630z" />
    <glyph glyph-name="K" unicode="K" horiz-adv-x="528" 
d="M40 35v630q0 14 10.5 24.5t24.5 10.5t24.5 -10.5t10.5 -24.5v-287l253 307l1 1q12 14 28 14q14 0 24.5 -10.5t10.5 -24.5q0 -12 -8 -22l-221 -266l262 -321q7 -11 7 -21q0 -14 -10.5 -24.5t-24.5 -10.5q-17 0 -29 15l-1 1l-250 306l-42 -50v-237q0 -14 -10.5 -24.5
t-24.5 -10.5t-24.5 10.5t-10.5 24.5z" />
    <glyph glyph-name="L" unicode="L" horiz-adv-x="535" 
d="M40 35v631q0 14 10.5 24t24.5 10t24.5 -10.5t10.5 -24.5v-595h358h3q14 0 24.5 -10.5t10.5 -24.5t-10.5 -24.5t-24.5 -10.5h-3h-390h-3q-14 0 -24.5 10.5t-10.5 24.5z" />
    <glyph glyph-name="P" unicode="P" horiz-adv-x="498" 
d="M40 665q0 14 10.5 24.5t24.5 10.5h3h170q108 0 170 -50q60 -51 60 -163q0 -72 -15.5 -106t-44.5 -60q-62 -49 -170 -49h-138v-237q0 -14 -10.5 -24.5t-24.5 -10.5t-24.5 10.5t-10.5 24.5v630zM363 372q40 32 40 115q0 79 -40 113q-43 32 -113 32h-140v-292h140
q70 0 113 32z" />
    <glyph glyph-name="J" unicode="J" horiz-adv-x="515" 
d="M48 665q0 14 10.5 24.5t24.5 10.5h361q14 0 24.5 -10.5t10.5 -24.5v-456q0 -48 -18.5 -90.5t-50 -74t-74 -50t-90.5 -18.5t-90.5 18.5t-74 50t-50 74t-18.5 90.5q0 14 10.5 24.5t24.5 10.5t24.5 -10.5t10.5 -24.5q0 -36 12 -64q13 -29 35 -51t52 -35t64 -13t63.5 13
t51.5 35t35 51.5t13 63.5v421h-326q-14 0 -24.5 10.5t-10.5 24.5z" />
    <glyph glyph-name="Q" unicode="Q" horiz-adv-x="796" 
d="M22 350q0 77 29.5 145t80.5 119t119 80.5t145 29.5t145 -29.5t119 -80.5t80.5 -119t29.5 -145t-29.5 -145t-80.5 -119q-48 -48 -112 -77q4 -15 17 -27q18 -17 43 -17q14 0 24.5 -10.5t10.5 -24.5t-10.5 -24.5t-24.5 -10.5h-3q-26 1 -48 10q-23 10 -40.5 27.5t-27.5 41.5
q-3 6 -5 13q-43 -11 -88 -11q-77 0 -145 29.5t-119 80.5t-80.5 119t-29.5 145zM383 118q0 14 10.5 24.5t24.5 10.5h3q25 -1 47 -10q24 -10 41 -28q16 -15 25 -35q42 22 75 55q42 42 66 97.5t24 117.5t-24 117t-65.5 96.5t-96.5 65.5t-117 24t-117.5 -24t-97 -65.5
t-65.5 -96.5t-24 -117t24 -117.5t65.5 -97t97 -65.5t117.5 -24q38 0 74 9q-4 6 -9 11q-18 17 -43 17q-14 0 -24.5 10.5t-10.5 24.5z" />
    <glyph glyph-name="at" unicode="@" horiz-adv-x="809" 
d="M706 350q0 63 -24 118t-65.5 96.5t-96.5 65.5t-118 24t-118 -24t-96.5 -65.5t-65.5 -96.5t-24 -118t24 -118t65.5 -96.5t96.5 -65.5t118 -24q14 0 24.5 -10.5t10.5 -24.5t-10.5 -24.5t-24.5 -10.5q-77 0 -145 29.5t-119 80.5t-80.5 119t-29.5 145t29.5 145t80.5 119
t119 80.5t145 29.5t145 -29.5t119 -80.5t80.5 -119t29.5 -145v-269q0 -21 -8.5 -40.5t-22.5 -33.5t-33 -22.5t-41 -8.5t-41 8.5t-33 22.5t-22 33.5t-8 40.5v102q-32 -31 -74 -49t-91 -18t-91.5 18.5t-74 50t-50 74t-18.5 91.5t18.5 91.5t50 74.5t74 50.5t91.5 18.5
t91.5 -18.5t74.5 -50.5t50.5 -74.5t18.5 -91.5v-269q0 -14 10 -24t24 -10t24.5 10t10.5 24v269zM237 350q0 -34 13 -64t35.5 -52.5t52.5 -35.5t64 -13t64 13t52.5 35.5t35.5 52.5t13 64t-13 64t-35.5 52.5t-52.5 35.5t-64 13t-64 -13t-52.5 -35.5t-35.5 -52.5t-13 -64z" />
    <glyph glyph-name="R" unicode="R" horiz-adv-x="508" 
d="M40 665q0 14 10.5 24.5t24.5 10.5h173q102 0 167 -50q31 -29 47 -71.5t16 -90.5q0 -110 -63 -165q-13 -10 -28 -19q14 -8 27 -17q63 -55 63 -144v-105v-3q0 -14 -10.5 -24.5t-24.5 -10.5t-24.5 10.5t-10.5 24.5v108q0 30 -11 53t-33 42q-37 34 -104 34h-149v-237
q0 -14 -10.5 -24.5t-24.5 -10.5t-24.5 10.5t-10.5 24.5v630zM363 372q44 37 44 117q0 79 -44 114q-40 34 -114 34h-139v-299h139q74 0 114 34z" />
    <glyph glyph-name="s" unicode="s" horiz-adv-x="415" 
d="M30 116q0 15 9 25t24 10q11 0 17.5 -6t10.5 -15q22 -48 52 -67t73 -18q49 0 73.5 23.5t26.5 56.5q1 34 -12.5 53t-39.5 31t-65 22t-72 24t-57 42t-29 70q-4 33 9 61t36.5 49.5t56.5 35t68 13.5q40 0 69.5 -13t43.5 -26.5t18 -20.5q7 -11 9.5 -22t0 -20.5t-10 -15.5
t-20.5 -6q-10 0 -18 4t-16 18q-9 16 -27.5 27t-48.5 11q-20 0 -43 -8t-42.5 -32t-14.5 -51q5 -24 23.5 -37t49 -24t67.5 -23t69.5 -32.5t50.5 -51.5t18 -78q0 -35 -14.5 -63t-39 -47t-57 -29t-67.5 -10t-69 12.5t-58.5 36.5t-37 45.5t-14.5 31.5q-2 8 -2 14z" />
    <glyph glyph-name="T" unicode="T" horiz-adv-x="486" 
d="M10 665q0 14 10.5 24.5t24.5 10.5h393h3q14 0 24.5 -10.5t10.5 -24.5t-10 -24.5t-24 -10.5h-164v-595q0 -14 -10.5 -24.5t-24.5 -10.5t-24.5 10.5t-10.5 24.5v595h-160h-3q-14 0 -24.5 10.5t-10.5 24.5z" />
    <glyph glyph-name="U" unicode="U" horiz-adv-x="538" 
d="M432 665q0 14 10.5 24.5t24.5 10.5t24.5 -10.5t10.5 -24.5v-456q0 -49 -18 -91.5t-49.5 -74t-74 -49.5t-91.5 -18t-91.5 18t-74 49.5t-49.5 74t-18 91.5v453q0 17 10.5 27.5t24.5 10.5t24.5 -10.5t10.5 -24.5v-456q0 -34 12.5 -64t34.5 -52t52 -34.5t64 -12.5t64 12.5
t52 34.5t34.5 52t12.5 64v456z" />
    <glyph glyph-name="V" unicode="V" horiz-adv-x="554" 
d="M29 655q-5 17 6 31t28 14q11 0 19.5 -6.5t13.5 -16.5l181 -562l180 562q4 10 13 16.5t20 6.5q17 0 28 -14.5t6 -29.5l-201 -628q-8 -28 -34 -28h-24q-13 0 -21.5 8t-13.5 21z" />
    <glyph glyph-name="X" unicode="X" horiz-adv-x="526" 
d="M89 700q19 0 29 -15l145 -259l142 254q10 20 32 20q14 0 24.5 -10.5t10.5 -24.5q0 -3 -1 -7t-6 -13l-162 -295l164 -297q5 -10 5 -18q0 -14 -10.5 -24.5t-24.5 -10.5q-21 0 -32 21l-142 253l-144 -257q-10 -17 -30 -17q-14 0 -24.5 10.5t-10.5 24.5q0 10 5 18l163 297
l-163 297q-6 9 -5 18.5t6 17t12.5 12.5t16.5 5z" />
    <glyph glyph-name="W" unicode="W" horiz-adv-x="663" 
d="M558 665q0 14 10.5 24.5t24.5 10.5t24.5 -10.5t10.5 -24.5v-630q0 -14 -10.5 -24.5t-24.5 -10.5h-18q-18 0 -28 14l-214 291l-212 -291q-12 -14 -28 -14h-18q-14 0 -24.5 10.5t-10.5 24.5v630q0 14 10.5 24.5t24.5 10.5t24.5 -10.5t10.5 -24.5v-546l193 264q11 16 30 16
q10 0 17 -5t13 -13l195 -263v547z" />
    <glyph glyph-name="Y" unicode="Y" horiz-adv-x="548" 
d="M239 273l-197 372q-2 4 -4 8.5t-2 11.5q0 14 10.5 24.5t24.5 10.5q16 0 22.5 -8t9.5 -13l171 -336l172 338q10 19 31 19q14 0 24.5 -10.5t10.5 -24.5q0 -4 -1 -8t-5 -11l-197 -371v-240q0 -14 -10.5 -24.5t-24.5 -10.5t-24.5 10.5t-10.5 24.5v238z" />
    <glyph glyph-name="Z" unicode="Z" horiz-adv-x="514" 
d="M24 665q0 14 10.5 24.5t24.5 10.5h3h393q14 0 24.5 -10.5t10.5 -24.5q0 -11 -5 -18l-366 -577h336q14 0 24.5 -10.5t10.5 -24.5t-10.5 -24.5t-24.5 -10.5h-3h-390h-3q-14 0 -24.5 10.5t-10.5 24.5q0 10 5 18l366 577h-336q-14 0 -24.5 10.5t-10.5 24.5z" />
    <glyph glyph-name="S" unicode="S" horiz-adv-x="546" 
d="M24 209q0 14 10.5 24.5t24.5 10.5t24.5 -10.5t10.5 -24.5q0 -34 14.5 -64t39.5 -52t58.5 -35t70.5 -12q34 1 65 9t55 24.5t38.5 41t14.5 58.5q0 49 -27 79t-68.5 49.5t-91.5 35t-95 35.5t-79 50.5t-44 80.5q-5 43 12.5 82t50 68.5t77 47t92.5 17.5q54 0 94 -19t68 -45.5
t43 -55.5q11 -20 15 -35q7 -17 -2 -33t-29 -16q-14 0 -20.5 10.5t-14.5 24.5q-26 48 -67 73t-87 26q-31 1 -62 -10t-54.5 -30t-36 -45t-6.5 -55q8 -35 40.5 -55.5t77.5 -36.5t95 -32t92 -41.5t69.5 -65.5t27.5 -104q0 -48 -20 -86t-53.5 -64t-77.5 -39.5t-92 -13.5t-94 17
t-81 47.5t-56.5 73.5t-21.5 95z" />
    <glyph glyph-name="seven" unicode="7" horiz-adv-x="495" 
d="M52 35q0 9 3 15l318 580h-312h-3q-14 0 -24.5 10.5t-10.5 24.5t10.5 24.5t24.5 10.5h372h3q14 0 24.5 -10.5t10.5 -24.5q0 -5 -1 -8.5t-3 -7.5l-1 -2l-346 -630q-10 -17 -30 -17q-14 0 -24.5 10.5t-10.5 24.5z" />
    <glyph glyph-name="bracketleft" unicode="[" horiz-adv-x="223" 
d="M40 789q0 14 10.5 24.5t24.5 10.5h105q14 0 24.5 -10.5t10.5 -24.5t-10.5 -24.5t-24.5 -10.5h-70v-902h70q14 0 24.5 -10.5t10.5 -24.5t-10.5 -24.5t-24.5 -10.5h-105q-14 0 -24.5 10.5t-10.5 24.5v972z" />
    <glyph glyph-name="bracketright" unicode="]" horiz-adv-x="222" 
d="M215 -183q0 -14 -10.5 -24.5t-24.5 -10.5h-105q-14 0 -24.5 10.5t-10.5 24.5t10.5 24.5t24.5 10.5h70v902h-70q-14 0 -24.5 10.5t-10.5 24.5t10.5 24.5t24.5 10.5h105q14 0 24.5 -10.5t10.5 -24.5v-972z" />
    <glyph glyph-name="a" unicode="a" horiz-adv-x="610" 
d="M507 35v3v29l-11 -11q-37 -37 -87 -58.5t-107 -21.5t-107 21.5t-87.5 59t-59 87.5t-21.5 107t21.5 107t59 87.5t87.5 59t107 21.5t107 -21.5t87.5 -59t59 -87.5t21.5 -107v-216q0 -14 -10.5 -24.5t-24.5 -10.5t-24.5 10.5t-10.5 24.5zM97 251q0 -42 16 -79.5t44 -65.5
t65.5 -44t79.5 -16t79.5 16t65.5 44t44 65q14 34 16 71v9q0 42 -16 79.5t-44 65.5t-65.5 44t-79.5 16t-79.5 -16t-65.5 -44t-44 -65.5t-16 -79.5z" />
    <glyph glyph-name="zero" unicode="0" horiz-adv-x="803" 
d="M28 350q0 77 29.5 145t80.5 119t119 80.5t145 29.5t145 -29.5t119 -80.5t80.5 -119t29.5 -145t-29.5 -145t-80.5 -119t-119 -80.5t-145 -29.5t-145 29.5t-119 80.5t-80.5 119t-29.5 145zM98 350q0 -62 24 -117.5t65.5 -97t97 -65.5t117.5 -24t117 24t96.5 65.5t65.5 97
t24 117.5t-24 117t-65.5 96.5t-96.5 65.5t-117 24t-117.5 -24t-97 -65.5t-65.5 -96.5t-24 -117z" />
    <glyph glyph-name="o" unicode="o" horiz-adv-x="604" 
d="M27 251q0 57 21.5 107t59 87.5t87.5 59t107 21.5t107 -21.5t87.5 -59t59 -87.5t21.5 -107t-21.5 -107t-59 -87.5t-87.5 -59t-107 -21.5t-107 21.5t-87.5 59t-59 87.5t-21.5 107zM97 251q0 -42 16 -79.5t44 -65.5t65.5 -44t79.5 -16t79.5 16t65.5 44t44 65.5t16 79.5
t-16 79.5t-44 65.5t-65.5 44t-79.5 16t-79.5 -16t-65.5 -44t-44 -65.5t-16 -79.5z" />
    <glyph glyph-name="p" unicode="p" horiz-adv-x="617" 
d="M36 -161v412q0 57 21.5 107t59 87.5t87.5 59t107 21.5t107 -21.5t87.5 -59t59 -87.5t21.5 -107t-21.5 -107t-59 -87.5t-87.5 -59t-107 -21.5t-117 30.5t-88 65.5v-236q0 -14 -10.5 -24.5t-24.5 -10.5t-24.5 10.5t-10.5 24.5v3zM106 251q0 -42 16 -79.5t44 -65.5t65.5 -44
t79.5 -16t79.5 16t65.5 44t44 65.5t16 79.5t-16 79.5t-44 65.5t-65.5 44t-79.5 16t-79.5 -16t-65.5 -44t-44 -65.5t-16 -79.5z" />
    <glyph glyph-name="q" unicode="q" horiz-adv-x="615" 
d="M581 -164q0 -14 -10.5 -24.5t-24.5 -10.5t-24.5 10.5t-10.5 24.5v236q-28 -35 -88 -65.5t-117 -30.5t-107 21.5t-87.5 59t-59 87.5t-21.5 107t21.5 107t59 87.5t87.5 59t107 21.5t107 -21.5t87.5 -59t59 -87.5t21.5 -107v-412v-3zM511 251q0 42 -16 79.5t-44 65.5
t-65.5 44t-79.5 16t-79.5 -16t-65.5 -44t-44 -65.5t-16 -79.5t16 -79.5t44 -65.5t65.5 -44t79.5 -16t79.5 16t65.5 44t44 65.5t16 79.5z" />
    <glyph glyph-name="b" unicode="b" horiz-adv-x="596" 
d="M21 665q0 14 10.5 24.5t24.5 10.5t24.5 -10.5t10.5 -24.5v-235q28 35 88 65.5t117 30.5t107 -21.5t87.5 -59t59 -87.5t21.5 -107t-21.5 -107t-59 -87.5t-87.5 -59t-107 -21.5t-107 21.5t-87.5 59t-59 87.5t-21.5 107v411v3zM91 251q0 -42 16 -79.5t44 -65.5t65.5 -44
t79.5 -16t79.5 16t65.5 44t44 65.5t16 79.5t-16 79.5t-44 65.5t-65.5 44t-79.5 16t-79.5 -16t-65.5 -44t-44 -65.5t-16 -79.5z" />
    <glyph glyph-name="d" unicode="d" horiz-adv-x="596" 
d="M571 662v-411q0 -57 -21.5 -107t-59 -87.5t-87.5 -59t-107 -21.5t-107 21.5t-87.5 59t-59 87.5t-21.5 107t21.5 107t59 87.5t87.5 59t107 21.5t117 -30.5t88 -65.5v235q0 14 10.5 24.5t24.5 10.5t24.5 -10.5t10.5 -24.5v-3zM501 251q0 42 -16 79.5t-44 65.5t-65.5 44
t-79.5 16t-79.5 -16t-65.5 -44t-44 -65.5t-16 -79.5t16 -79.5t44 -65.5t65.5 -44t79.5 -16t79.5 16t65.5 44t44 65.5t16 79.5z" />
    <glyph glyph-name="i" unicode="i" 
d="M26 658q0 18 12 30t30 12t30 -12t12 -30t-12 -30t-30 -12t-30 12t-12 30zM32 465q0 14 10.5 24.5t24.5 10.5t24.5 -10.5t10.5 -24.5v-430q0 -14 -10.5 -24.5t-24.5 -10.5t-24.5 10.5t-10.5 24.5v430z" />
    <glyph glyph-name="backslash" unicode="\" horiz-adv-x="312" 
d="M18 667q0 14 10.5 23.5t24.5 9.5q13 0 21.5 -8.5t12.5 -20.5l205 -625q1 -3 1.5 -5.5t0.5 -5.5q0 -14 -10.5 -24.5t-24.5 -10.5q-13 0 -22 8t-13 21l-202 619q-2 5 -3 9.5t-1 9.5z" />
    <glyph glyph-name="slash" unicode="/" horiz-adv-x="312" 
d="M227 676q5 14 17.5 20.5t26.5 1.5t20.5 -17.5t1.5 -26.5l-209 -630q-5 -14 -17.5 -20.5t-26.5 -1.5t-20.5 17.5t-1.5 26.5z" />
    <glyph glyph-name="c" unicode="c" horiz-adv-x="579" 
d="M465 135q8 14 19 23.5t25 7.5q16 -2 23 -15t2 -28q-6 -22 -29 -48q-46 -56 -96 -77.5t-107 -21.5t-107 21.5t-87.5 59t-59 87.5t-21.5 107t21.5 107t59 87.5t87.5 59t107 21.5t107 -21.5t96 -71.5q26 -31 30 -54q3 -15 -2 -25.5t-18 -13.5q-17 -4 -27.5 6.5t-21.5 23.5
q-33 48 -77.5 67t-86.5 19t-79.5 -16t-65.5 -44t-44 -65.5t-16 -79.5t16 -79.5t44 -65.5t65.5 -44t79.5 -16t83.5 19.5t79.5 69.5z" />
    <glyph glyph-name="g" unicode="g" horiz-adv-x="611" 
d="M62 -74q0 14 10.5 24.5t24.5 10.5q10 0 18 -6t13 -14q12 -18 28 -34q28 -28 65.5 -44t79.5 -16t79.5 16t65.5 44t44 65.5t16 79.5v15l-11 -11q-37 -37 -87 -58.5t-107 -21.5t-107 21.5t-87.5 59t-59 87.5t-21.5 107t21.5 107t59 87.5t87.5 59t107 21.5t107 -21.5
t87 -59.5q6 -5 11 -11v28v3q0 14 10.5 24.5t24.5 10.5t24.5 -10.5t10.5 -24.5v-3v-410q0 -57 -21.5 -107t-59 -87.5t-87.5 -59t-107 -21.5t-107 21.5t-88 59.5q-20 20 -36 45q-8 11 -8 23zM96 251q0 -42 16 -79.5t44 -65.5t65.5 -44t79.5 -16t79.5 16t65.5 44t44 65.5
t16 87.5q0 39 -14 72q-18 37 -46 65t-65.5 44t-79.5 16t-79.5 -16t-65.5 -44t-44 -65.5t-16 -79.5z" />
    <glyph glyph-name="f" unicode="f" horiz-adv-x="342" 
d="M66 35v3v234h-13h-3q-14 0 -24.5 10.5t-10.5 24.5t10.5 24.5t24.5 10.5h3h13v224q0 28 10.5 52.5t28.5 42.5t42.5 28.5t52.5 10.5t52.5 -10.5t43 -28.5t29 -42.5t10.5 -52.5q0 -14 -10.5 -24.5t-24.5 -10.5t-24.5 10.5t-10.5 24.5q0 26 -19 44.5t-45 18.5t-44.5 -18.5
t-20.5 -44.5v-224h93h3q14 0 24.5 -10.5t10.5 -24.5t-10.5 -24.5t-24.5 -10.5h-96v-237q0 -14 -10.5 -24.5t-24.5 -10.5t-24.5 10.5t-10.5 24.5z" />
    <glyph glyph-name="r" unicode="r" horiz-adv-x="363" 
d="M40 35v430q0 14 10.5 24.5t24.5 10.5t24.5 -10.5t10.5 -24.5v-60q5 10 11 16q38 38 88 59q48 21 104 22h3q14 0 24.5 -10.5t10.5 -24.5t-10.5 -24.5t-24.5 -10.5h-3q-41 -1 -77 -16q-37 -16 -65 -44t-44 -65.5t-17 -79.5v-192q0 -14 -10.5 -24.5t-24.5 -10.5t-24.5 10.5
t-10.5 24.5z" />
    <glyph glyph-name="h" unicode="h" horiz-adv-x="530" 
d="M42 35v3v627q0 14 10.5 24.5t24.5 10.5t24.5 -10.5t10.5 -24.5v-3v-206q12 16 28.5 29t37 22t42.5 14t44 5q46 0 87 -18t71.5 -48.5t48.5 -71.5t18 -87v-263v-3q0 -14 -10.5 -24.5t-24.5 -10.5t-24.5 10.5t-10.5 24.5v266q-2 32 -14 60t-33 48.5t-49 32.5t-59 12
q-30 0 -57.5 -13t-48 -34.5t-33 -49t-13.5 -57.5v-262v-3q0 -14 -10.5 -24.5t-24.5 -10.5t-24.5 10.5t-10.5 24.5z" />
    <glyph glyph-name="m" unicode="m" horiz-adv-x="904" 
d="M42 465q0 14 10.5 24.5t24.5 10.5t24.5 -10.5t10.5 -24.5v-10q24 32 65.5 51.5t86.5 19.5q59 0 106.5 -28.5t78.5 -75.5q30 47 81.5 75.5t111.5 28.5q46 0 87 -18t71.5 -48.5t48 -72t15.5 -87.5v-52v-3v-210q0 -14 -10.5 -24.5t-24.5 -10.5t-24.5 10.5t-10.5 24.5v265
q0 32 -12 60t-32.5 49t-48 33t-59.5 12t-59.5 -12t-48.5 -33t-33 -49q-11 -26 -13 -56v-269q0 -14 -10.5 -24.5t-24.5 -10.5t-24.5 10.5t-10.5 24.5v265q-3 33 -15.5 61.5t-33 49t-47.5 32t-58 11.5t-58.5 -13t-48.5 -34.5t-33 -49.5q-11 -24 -12 -50v-272
q0 -14 -10.5 -24.5t-24.5 -10.5t-24.5 10.5t-10.5 24.5v430z" />
    <glyph glyph-name="n" unicode="n" horiz-adv-x="523" 
d="M39 465q0 14 10.5 24.5t24.5 10.5t24.5 -10.5t10.5 -24.5v-11q10 16 27 29.5t37.5 23t43.5 14.5t46 5q46 0 87 -18t71.5 -48.5t48.5 -72t16 -87.5v-265q0 -14 -10.5 -24.5t-24.5 -10.5t-24.5 10.5t-10.5 24.5v265q0 32 -12 60t-33 49t-49 33t-59 12t-59 -13t-49 -34.5
t-34 -49.5q-11 -25 -12 -50v-272q0 -14 -10.5 -24.5t-24.5 -10.5t-24.5 10.5t-10.5 24.5v430z" />
    <glyph glyph-name="k" unicode="k" horiz-adv-x="393" 
d="M40 665q0 14 10.5 24.5t24.5 10.5t24.5 -10.5t10.5 -24.5v-324l191 154q7 5 19 5q14 0 24.5 -10.5t10.5 -24.5q0 -7 -3 -13.5t-13 -15.5l-175 -139l184 -242q6 -9 6 -20q0 -14 -10.5 -24.5t-24.5 -10.5q-19 0 -28 14l-181 238v-217q0 -14 -10.5 -24.5t-24.5 -10.5
t-24.5 10.5t-10.5 24.5v630z" />
    <glyph glyph-name="l" unicode="l" horiz-adv-x="148" 
d="M40 665q0 14 10.5 24.5t24.5 10.5t24.5 -10.5t10.5 -24.5v-630q0 -14 -10.5 -24.5t-24.5 -10.5t-24.5 10.5t-10.5 24.5v630z" />
    <glyph glyph-name="j" unicode="j" horiz-adv-x="150" 
d="M36 658q0 18 12 30t30 12t30 -12t12 -30t-12 -30t-30 -12t-30 12t-12 30zM-156 -63q0 14 10.5 24.5t24.5 10.5t24.5 -10.5t10.5 -24.5q2 -26 20.5 -44.5t44.5 -18.5t45 18.5t19 44.5v528q0 14 10.5 24.5t24.5 10.5t24.5 -10.5t10.5 -24.5v-528q0 -28 -10.5 -52.5
t-29 -42.5t-43 -28.5t-52.5 -10.5t-52.5 10.5t-42.5 28.5t-28.5 42.5t-10.5 52.5z" />
    <glyph glyph-name="t" unicode="t" horiz-adv-x="289" 
d="M69 665q0 14 10.5 24.5t24.5 10.5t24.5 -10.5t10.5 -24.5v-165h96q14 0 24.5 -10.5t10.5 -24.5t-10.5 -24.5t-24.5 -10.5h-3h-93v-395q0 -14 -10.5 -24.5t-24.5 -10.5t-24.5 10.5t-10.5 24.5v3v392h-13h-3q-14 0 -24.5 10.5t-10.5 24.5t10.5 24.5t24.5 10.5h16v165z" />
    <glyph glyph-name="u" unicode="u" horiz-adv-x="518" 
d="M37 465q0 14 10.5 24.5t24.5 10.5t24.5 -10.5t10.5 -24.5v-240q0 -32 12 -60t33 -48.5t48.5 -32.5t59.5 -12t60 12t49 32.5t33 48.5t12 60v240q0 14 10.5 24.5t24.5 10.5t24.5 -10.5t10.5 -24.5v-240q0 -46 -17.5 -87t-48 -71.5t-71.5 -48.5t-87 -18t-87 18t-71.5 48.5
t-47.5 71t-17 87.5v240z" />
    <glyph glyph-name="v" unicode="v" horiz-adv-x="545" 
d="M70 500q21 0 31 -19l171 -393l172 394q5 8 13 13t18 5q14 0 25 -10.5t11 -24.5q0 -4 -2 -10l-188 -431q-4 -11 -12.5 -17.5t-19.5 -6.5h-35q-11 0 -18.5 6.5t-12.5 17.5l-183 423q-9 18 0.5 35.5t29.5 17.5z" />
    <glyph glyph-name="y" unicode="y" horiz-adv-x="524" 
d="M225 -164v3v163q-28 5 -52 16q-41 18 -71.5 48.5t-48 71.5t-17.5 87v240q0 14 10.5 24.5t24.5 10.5t24.5 -10.5t10.5 -24.5v-240q1 -32 13 -60t33 -48.5t48.5 -32.5t59.5 -12t60 12t49 32.5t33 48.5t12 60v237v3q0 14 10.5 24.5t24.5 10.5t24.5 -10.5t10.5 -24.5v-3v-237
q0 -46 -17.5 -87t-48 -71.5t-71.5 -48.5q-25 -11 -52 -16v-163v-3q0 -14 -10.5 -24.5t-24.5 -10.5t-24.5 10.5t-10.5 24.5z" />
    <glyph glyph-name="x" unicode="x" horiz-adv-x="411" 
d="M58 465q0 14 10.5 24.5t24.5 10.5q9 0 17.5 -4.5t12.5 -12.5l83 -166l84 168q12 15 29 15q14 0 24.5 -10.5t10.5 -24.5q0 -8 -3 -14q-1 -1 -3 -5l-11.5 -23t-30.5 -59t-60 -114l103 -197v-1l1 -1l1 -2q3 -8 3 -14q0 -14 -10.5 -24.5t-24.5 -10.5q-21 0 -31 19l-82 165
l-82 -165q-10 -19 -31 -19q-14 0 -24.5 10.5t-10.5 24.5q0 10 4 17l103 198l-105 202q-2 8 -2 13z" />
    <glyph glyph-name="z" unicode="z" horiz-adv-x="411" 
d="M33 465q0 14 10.5 24.5t24.5 10.5h276q14 0 25 -10.5t11 -24.5q0 -6 -3 -12t-5 -9l-245 -374h217q14 0 24.5 -10.5t10.5 -24.5t-10.5 -24.5t-24.5 -10.5h-276q-14 0 -24.5 10.5t-10.5 24.5q0 10 5 18l246 377h-216q-14 0 -24.5 10.5t-10.5 24.5z" />
    <glyph glyph-name="e" unicode="e" horiz-adv-x="598" 
d="M535 272h-437q-1 -11 -1 -21q0 -42 16 -79.5t44 -65.5t65.5 -44t79.5 -16t79.5 16t65.5 44q15 15 22 25q5 8 13 14.5t19 6.5q14 0 24.5 -10.5t10.5 -24.5v-4q-2 -19 -39.5 -56.5t-87.5 -59t-107 -21.5t-107 21.5t-87.5 59t-59 87.5t-21.5 107t21.5 107t59 87.5t87.5 59
t107 21.5t107 -21.5t87.5 -59t58.5 -87.5q12 -31 14 -42q5 -24 -5.5 -34t-28.5 -10zM447 396q-28 28 -65.5 44t-79.5 16t-79.5 -16t-65.5 -44q-24 -24 -39 -54h367q-15 30 -38 54z" />
    <glyph glyph-name="w" unicode="w" horiz-adv-x="900" 
d="M37 465q0 14 10.5 24.5t24.5 10.5t24.5 -10.5t10.5 -24.5v-263q0 -32 12 -60t32.5 -49t48.5 -33t60 -12q31 0 59 12t49 33t33.5 49t13.5 60v263q0 14 10.5 24.5t24.5 10.5t24.5 -10.5t10.5 -24.5v-263q2 -34 14.5 -62t33 -48.5t47.5 -32t58 -11.5q32 0 60 12t48.5 33
t32.5 49t12 60v263q0 14 10.5 24.5t24.5 10.5t24.5 -10.5t10.5 -24.5v-263q0 -47 -16.5 -88t-47.5 -71.5t-72 -48.5t-87 -18q-60 0 -109.5 28t-79.5 76q-31 -48 -80.5 -76t-108.5 -28q-47 0 -87.5 18t-70.5 48.5t-47.5 71.5t-17.5 88v263z" />
    <glyph glyph-name="period" unicode="." horiz-adv-x="141" 
d="M29 42q0 18 12 30t30 12t30 -12t12 -30t-12 -30t-30 -12t-30 12t-12 30z" />
    <glyph glyph-name="question" unicode="?" horiz-adv-x="496" 
d="M36 531q-37 10 -18 47q22 44 80 83t136 39q51 0 96 -19.5t78.5 -53t53 -78.5t19.5 -96q0 -47 -16.5 -89t-45.5 -74.5t-68.5 -53.5t-84.5 -27v-43q0 -14 -10.5 -24.5t-24.5 -10.5t-24.5 10.5t-10.5 24.5v72q0 14 10.5 24.5t24.5 10.5h3q38 0 70 14q33 14 57.5 38.5
t38.5 57t14 70.5q0 37 -14 70t-38.5 57.5t-57.5 38.5t-70 14q-50 0 -89 -19t-72 -63q-6 -9 -14.5 -16.5t-22.5 -3.5zM274 42q0 -18 -12 -30t-30 -12t-30 12t-12 30t12 30t30 12t30 -12t12 -30z" />
    <glyph glyph-name="one" unicode="1" horiz-adv-x="214" 
d="M4 665q0 14 10.5 24.5t24.5 10.5h3h98q14 0 24.5 -10.5t10.5 -27.5v-627q0 -14 -10.5 -24.5t-24.5 -10.5t-24.5 10.5t-10.5 24.5v595h-66q-14 0 -24.5 10.5t-10.5 24.5z" />
    <glyph glyph-name="two" unicode="2" horiz-adv-x="506" 
d="M31 509q1 40 17 78q16 39 48 71q33 33 73.5 49t83.5 16t83.5 -16t73.5 -49t49 -73.5t16 -83t-16 -83.5t-49 -73l-290 -275h329q14 0 24.5 -10.5t10.5 -24.5t-10.5 -24.5t-24.5 -10.5h-396q-14 0 -24.5 10.5t-10.5 24.5v20q0 17 14 28l329 310q22 22 33.5 50.5t11.5 57.5
t-11.5 57t-33.5 50q-23 22 -50.5 33.5t-57 11.5t-57.5 -11.5t-50 -33.5q-21 -21 -32 -47.5t-13 -54.5q0 -14 -10.5 -24.5t-24.5 -10.5t-24.5 10.5t-10.5 24.5v3z" />
    <glyph glyph-name="four" unicode="4" horiz-adv-x="500" 
d="M184 700q17 0 27.5 -14.5t5.5 -31.5l-111 -458h225v88q0 14 10.5 24.5t24.5 10.5t24.5 -10.5t10.5 -24.5v-88h47q14 0 24.5 -10.5t10.5 -24.5t-10.5 -24.5t-24.5 -10.5h-47v-91q0 -14 -10.5 -24.5t-24.5 -10.5t-24.5 10.5t-10.5 24.5v91h-266q-18 0 -29.5 13.5t-7.5 30.5
l121 495q3 15 12 25t23 10z" />
    <glyph glyph-name="six" unicode="6" horiz-adv-x="605" 
d="M31 449q0 57 21.5 107t59 87.5t87.5 59t107 21.5t107 -22q45 -19 78 -50q12 -12 12.5 -26.5t-9.5 -25.5q-11 -10 -25 -10t-25 10q-24 22 -59 37q-37 16 -79 16t-79.5 -15.5t-65.5 -43.5t-44 -65.5t-16 -79.5v-15q5 6 10 11q38 38 88 59.5t107 21.5t107 -21.5t87.5 -59
t59 -87.5t21.5 -107t-21.5 -107t-59 -87.5t-87.5 -59t-107 -21.5t-107 21.5t-87.5 59t-59 87.5t-21.5 107v198zM101 251q0 -42 16 -79.5t44 -65.5t65.5 -44t79.5 -16t79.5 16t65.5 44t44 65.5t16 79.5t-16 79.5t-44 65.5t-65.5 44t-79.5 16t-79.5 -16t-65.5 -44t-44 -65.5
t-16 -79.5z" />
    <glyph glyph-name="nine" unicode="9" horiz-adv-x="605" 
d="M581 251q0 -57 -21.5 -107t-59 -87.5t-87.5 -59t-107 -21.5t-107 22q-45 19 -78 50q-12 12 -12.5 26.5t9.5 25.5q11 10 25 10t25 -10q24 -22 59 -37q37 -16 79 -16t79.5 15.5t65.5 43.5t44 65.5t16 79.5v15q-5 -6 -10 -11q-38 -38 -88 -59.5t-107 -21.5t-107 21.5
t-87.5 59t-59 87.5t-21.5 107t21.5 107t59 87.5t87.5 59t107 21.5t107 -21.5t87.5 -59t59 -87.5t21.5 -107v-198zM511 449q0 42 -16 79.5t-44 65.5t-65.5 44t-79.5 16t-79.5 -16t-65.5 -44t-44 -65.5t-16 -79.5t16 -79.5t44 -65.5t65.5 -44t79.5 -16t79.5 16t65.5 44
t44 65.5t16 79.5z" />
    <glyph glyph-name="five" unicode="5" horiz-adv-x="606" 
d="M69 388q0 4 2 12l54 267q2 14 11.5 23.5t26.5 9.5h278h3q14 0 24.5 -10.5t10.5 -24.5t-10.5 -24.5t-24.5 -10.5h-257l-28 -145q66 41 142 40q57 0 107 -21.5t87.5 -59t59 -87.5t21.5 -107t-21.5 -107t-59 -87.5t-87.5 -59t-107 -21.5t-107 21.5t-87.5 59t-59.5 87.5
q-21 49 -21 107q0 14 10.5 24.5t24.5 10.5t24.5 -10.5t10.5 -24.5q0 -44 16 -80q16 -37 44 -65t65.5 -44t79.5 -16t79.5 16t65.5 44t44 65.5t16 79.5t-16 79.5t-44 65.5t-65.5 44t-84.5 16q-48 0 -90 -16.5t-67 -50.5q-8 -13 -18.5 -24t-23.5 -10q-14 1 -21 10.5t-7 23.5z
" />
    <glyph glyph-name="eight" unicode="8" horiz-adv-x="594" 
d="M163 590q0 28 10.5 52.5t28.5 42.5t42.5 28.5t52.5 10.5t52.5 -10.5t42.5 -28.5t28.5 -42.5t10.5 -52.5q0 -49 -30 -85l3 -1q50 -21 87.5 -58.5t59 -87.5t21.5 -107t-21.5 -107t-59 -87.5t-87.5 -59t-107 -21.5t-107 21.5t-87.5 59t-59 87.5t-21.5 107t21.5 107t59 87.5
t87.5 58.5l3 1q-30 36 -30 85zM92 251q0 -42 16 -79.5t44 -65.5t65.5 -44t79.5 -16t79.5 16t65.5 44t44 65.5t16 79.5t-16 79.5t-44 65.5t-66 44q-35 15 -74 16h-5q-42 0 -79.5 -16t-65.5 -44t-44 -65.5t-16 -79.5zM233 590q0 -26 19 -45t45 -19h5q24 2 41.5 20t17.5 44
t-19 45t-45 19t-45 -19t-19 -45z" />
    <glyph glyph-name="comma" unicode="," 
d="M25 42q0 18 12 30t30 12t30 -12t12 -30v-39q0 -20 -6 -35.5t-24 -25.5q-25 -13 -32 -5t1 20q8 10 13.5 19.5t5.5 23.5q-18 0 -30 12t-12 30z" />
    <glyph glyph-name="colon" unicode=":" horiz-adv-x="145" 
d="M31 42q0 18 12 30t30 12t30 -12t12 -30t-12 -30t-30 -12t-30 12t-12 30zM31 458q0 18 12 30t30 12t30 -12t12 -30t-12 -30t-30 -12t-30 12t-12 30z" />
    <glyph glyph-name="semicolon" unicode=";" horiz-adv-x="139" 
d="M25 458q0 18 12 30t30 12t30 -12t12 -30t-12 -30t-30 -12t-30 12t-12 30zM25 42q0 18 12 30t30 12t30 -12t12 -30v-39q0 -13 -5.5 -26t-19.5 -22q-25 -13 -32 -5t4 18q24 13 17 32q-28 0 -38 12t-10 30z" />
    <glyph glyph-name="three" unicode="3" horiz-adv-x="593" 
d="M227 484q0 13 8.5 20t20.5 15l151 111h-302q-17 0 -27.5 10.5t-10.5 24.5t10.5 24.5t27.5 10.5h371q14 0 24.5 -10.5t10.5 -24.5v-19q0 -18 -14 -28l-125 -102q19 -5 37 -13q50 -21 87.5 -58.5t59 -87.5t21.5 -107t-21.5 -107t-59 -87.5t-87.5 -59t-107 -21.5t-107 21.5
t-87.5 59t-59.5 87.5q-21 49 -21 106q0 14 10.5 24.5t24.5 10.5t24.5 -10.5t10.5 -24.5v-3q0 -41 16 -76q16 -37 44 -65t65.5 -44t79.5 -16t79.5 16t65.5 44t44 65.5t16 79.5t-16 79.5t-51 69.5t-84 43q-53 9 -100 7q-14 0 -21.5 10.5t-7.5 24.5z" />
    <glyph glyph-name="plus" unicode="+" horiz-adv-x="356" 
d="M177 135q-14 0 -24.5 10.5t-10.5 24.5v102h-99q-14 0 -24.5 10.5t-10.5 24.5t10.5 24.5t24.5 10.5h99v99q0 14 10.5 24.5t24.5 10.5t24.5 -10.5t10.5 -24.5v-99h102q14 0 24.5 -10.5t10.5 -24.5t-10.5 -24.5t-24.5 -10.5h-102v-102q0 -14 -10.5 -24.5t-24.5 -10.5z" />
    <glyph glyph-name="asterisk" unicode="*" horiz-adv-x="210" 
d="M25 574q0 12 10 17l32 18l-30 18q-12 7 -12 17q0 8 5 13.5t13 5.5q5 0 11 -4l32 -18v40q0 8 5 13.5t13 5.5t13.5 -5.5t5.5 -13.5v-40l33 18q10 6 20 1t10 -16q0 -10 -9 -15l-35 -20l32 -18q11 -6 11 -17t-10.5 -16t-20.5 2l-31 18v-38v-2q0 -8 -5.5 -13t-13.5 -5t-13 5
t-5 13v2v38l-31 -18q-7 -4 -12 -4q-8 0 -13 5t-5 13z" />
    <glyph glyph-name="percent" unicode="%" horiz-adv-x="356" 
d="M27 659q0 18 12 30t30 12t30 -12t12 -30t-12 -30t-30 -12t-30 12t-12 30zM246 42q0 18 12 30t30 12t30 -12t12 -30t-12 -30t-30 -12t-30 12t-12 30zM246 676q5 14 17.5 20.5t26.5 1.5t20.5 -17.5t1.5 -26.5l-209 -630q-5 -14 -17.5 -20.5t-26.5 -1.5t-20.5 17.5
t-1.5 26.5z" />
    <glyph glyph-name="exclam" unicode="!" horiz-adv-x="138" 
d="M110 42q0 -18 -12 -30t-30 -12t-30 12t-12 30t12 30t30 12t30 -12t12 -30zM34 665q0 14 10.5 24.5t24.5 10.5t24.5 -10.5t10.5 -24.5v-499q0 -14 -10.5 -24.5t-24.5 -10.5t-24.5 10.5t-10.5 24.5v499z" />
    <glyph glyph-name="hyphen" unicode="-" horiz-adv-x="421" 
d="M40 307q0 14 10.5 24.5t24.5 10.5h271q14 0 24.5 -10.5t10.5 -24.5t-10.5 -24.5t-24.5 -10.5h-3h-265h-3q-14 0 -24.5 10.5t-10.5 24.5z" />
    <glyph glyph-name="quotesingle" unicode="'" horiz-adv-x="140" 
d="M36 665q0 14 10.5 24.5t24.5 10.5t24.5 -10.5t10.5 -24.5v-93q0 -14 -10.5 -24.5t-24.5 -10.5t-24.5 10.5t-10.5 24.5v93z" />
    <glyph glyph-name="quotedblleft" unicode="&#x201c;" horiz-adv-x="249" 
d="M232 605q0 -18 -12 -30t-30 -12t-30 12t-12 30v39q0 13 5.5 26t19.5 22q25 13 32 5t-4 -18q-24 -13 -17 -32q28 0 38 -12t10 -30zM102 605q0 -18 -12 -30t-30 -12t-30 12t-12 30v39q0 13 5.5 26t19.5 22q25 13 32 5t-4 -18q-24 -13 -17 -32q28 0 38 -12t10 -30z" />
    <glyph glyph-name="quotedblright" unicode="&#x201d;" horiz-adv-x="248" 
d="M18 658q0 18 12 30t30 12t30 -12t12 -30v-39q0 -13 -5.5 -26t-19.5 -22q-25 -13 -32 -5t4 18q24 13 17 32q-28 0 -38 12t-10 30zM148 658q0 18 12 30t30 12t30 -12t12 -30v-39q0 -13 -5.5 -26t-19.5 -22q-25 -13 -32 -5t4 18q24 13 17 32q-28 0 -38 12t-10 30z" />
    <glyph glyph-name="braceleft" unicode="{" horiz-adv-x="325" 
d="M14 304q0 14 10.5 24.5t24.5 10.5q16 1 30 7t25 16t17.5 24t6.5 30v261q0 31 12 58t32 46.5t47.5 31t57.5 10.5q14 0 24.5 -10.5t10.5 -24.5t-10.5 -24.5t-24.5 -10.5q-16 0 -30 -6t-25 -16t-17.5 -24t-6.5 -30v-261q0 -35 -14.5 -63.5t-37.5 -48.5q23 -20 37.5 -48.5
t14.5 -62.5v-263q0 -16 6.5 -30t17.5 -24t25 -16t30 -6q14 0 24.5 -10.5t10.5 -24.5t-10.5 -24.5t-24.5 -10.5h-3q-29 0 -55 11q-27 11 -47 30.5t-32 46.5t-12 58v263q0 31 -21.5 52.5t-51.5 23.5h-3h-3q-14 0 -24.5 10.5t-10.5 24.5z" />
    <glyph glyph-name="braceright" unicode="}" horiz-adv-x="328" 
d="M312 304q0 -14 -10.5 -24.5t-24.5 -10.5h-3h-3q-30 -2 -51.5 -23.5t-21.5 -52.5v-263q0 -31 -12 -58t-32 -46.5t-47 -30.5q-26 -11 -55 -11h-3q-14 0 -24.5 10.5t-10.5 24.5t10.5 24.5t24.5 10.5q16 0 30 6t25 16t17.5 24t6.5 30v263q0 34 14.5 62.5t37.5 48.5
q-23 20 -37.5 48.5t-14.5 63.5v261q0 16 -6.5 30t-17.5 24t-25 16t-30 6q-14 0 -24.5 10.5t-10.5 24.5t10.5 24.5t24.5 10.5q30 1 57.5 -10.5t47.5 -31t32 -46.5t12 -58v-261q0 -16 6.5 -30t17.5 -24t25 -16t30 -7q14 0 24.5 -10.5t10.5 -24.5z" />
    <glyph glyph-name="bar" unicode="|" horiz-adv-x="148" 
d="M40 790q0 14 10.5 24.5t24.5 10.5t24.5 -10.5t10.5 -24.5v-970q0 -14 -10.5 -24.5t-24.5 -10.5t-24.5 10.5t-10.5 24.5v970z" />
    <glyph glyph-name="equal" unicode="=" horiz-adv-x="556" 
d="M40 321q0 14 10.5 24.5t24.5 10.5h406q14 0 24.5 -10.5t10.5 -24.5t-10.5 -24.5t-24.5 -10.5h-3h-400h-3q-14 0 -24.5 10.5t-10.5 24.5zM40 181q0 14 10.5 24.5t24.5 10.5h406q14 0 24.5 -10.5t10.5 -24.5t-10.5 -24.5t-24.5 -10.5h-3h-400h-3q-14 0 -24.5 10.5
t-10.5 24.5z" />
    <glyph glyph-name="less" unicode="&#x3c;" horiz-adv-x="487" 
d="M24 251q0 16 7 24t21 15l374 162q10 4 19.5 2.5t17 -6t11.5 -12t4 -15.5q0 -12 -7 -21t-18 -13l-312 -136l307 -134q13 -5 21.5 -13.5t8.5 -21.5q0 -14 -10.5 -24.5t-24.5 -10.5q-4 0 -12 2l-379 164q-14 7 -21 15t-7 23z" />
    <glyph glyph-name="greater" unicode="&#x3e;" horiz-adv-x="488" 
d="M477 251q0 -15 -7 -23t-21 -15l-379 -164q-8 -2 -12 -2q-14 0 -24.5 10.5t-10.5 24.5q0 13 8.5 21.5t21.5 13.5l307 134l-312 136q-11 4 -18 13t-7 21q0 8 4 15.5t11.5 12t16.5 6t20 -2.5l374 -162q14 -7 21 -15t7 -24z" />
    <glyph glyph-name="asciicircum" unicode="^" horiz-adv-x="455" 
d="M35 338q0 6 3 14l140 321q5 11 13 19t21 8h31q11 0 19 -6t13 -15l142 -329q6 -16 -4 -31.5t-29 -15.5q-21 0 -31 19l-126 289l-123 -280q-5 -12 -13.5 -20t-20.5 -8q-14 0 -24.5 10.5t-10.5 24.5z" />
    <glyph glyph-name="underscore" unicode="_" horiz-adv-x="584" 
d="M40 35q0 14 10.5 24.5t24.5 10.5h434q14 0 24.5 -10.5t10.5 -24.5t-10.5 -24.5t-24.5 -10.5h-3h-428h-3q-14 0 -24.5 10.5t-10.5 24.5z" />
    <glyph glyph-name="grave" unicode="`" horiz-adv-x="161" 
d="M32 665q0 14 10.5 24.5t24.5 10.5q11 0 19 -6t13 -15l25 -62q1 -3 1 -9q0 -14 -10.5 -24.5t-24.5 -10.5q-11 0 -19.5 5.5t-12.5 15.5l-25 62q-1 3 -1 9z" />
    <glyph glyph-name="Agrave" unicode="&#xc0;" horiz-adv-x="557" 
d="M490 0q-27 0 -34 25l-79 247h-201l-79 -249q-10 -23 -33 -23q-14 0 -24.5 10.5t-10.5 24.5q0 3 0.5 5.5t1.5 5.5l195 611q5 18 19 31t31 13q18 0 32 -13t19 -31l194 -607q7 -17 -2 -33.5t-29 -16.5zM199 342h156l-78 253zM209 850q0 14 10.5 24.5t24.5 10.5q11 0 19 -6
t13 -15l25 -62q1 -3 1 -9q0 -14 -10.5 -24.5t-24.5 -10.5q-11 0 -19.5 5.5t-12.5 15.5l-25 62q-1 3 -1 9z" />
    <glyph glyph-name="Aacute" unicode="&#xc1;" horiz-adv-x="557" 
d="M340.004 851q0 14 -10.499 24.5q-10.498 10.5 -24.4971 10.5q-10.998 0 -18.9971 -6t-12.999 -15l-24.9961 -62q-1 -3 -1 -9q0 -14 10.498 -24.5q10.499 -10.5 24.4971 -10.5q10.999 0 19.498 5.5t12.498 15.5l24.9971 62q1 3 1 9zM490 0q-27 0 -34 25l-79 247h-201
l-79 -249q-10 -23 -33 -23q-14 0 -24.5 10.5t-10.5 24.5q0 3 0.5 5.5t1.5 5.5l195 611q5 18 19 31t31 13q18 0 32 -13t19 -31l194 -607q7 -17 -2 -33.5t-29 -16.5zM199 342h156l-78 253z" />
    <glyph glyph-name="Egrave" unicode="&#xc8;" horiz-adv-x="539" 
d="M40 665q0 14 10.5 24.5t24.5 10.5h396q14 0 24.5 -10.5t10.5 -24.5t-10.5 -24.5t-24.5 -10.5h-361v-288h291q14 0 24.5 -10.5t10.5 -24.5t-10.5 -24.5t-24.5 -10.5h-291v-202h361q14 0 24.5 -10.5t10.5 -24.5t-10.5 -24.5t-24.5 -10.5h-396q-14 0 -24.5 10.5t-10.5 24.5
v630zM211 851q0 14 10.5 24.5t24.5 10.5q11 0 19 -6t13 -15l25 -62q1 -3 1 -9q0 -14 -10.5 -24.5t-24.5 -10.5q-11 0 -19.5 5.5t-12.5 15.5l-25 62q-1 3 -1 9z" />
    <glyph glyph-name="Eacute" unicode="&#xc9;" horiz-adv-x="533" 
d="M40 665q0 14 10.5 24.5t24.5 10.5h396q14 0 24.5 -10.5t10.5 -24.5t-10.5 -24.5t-24.5 -10.5h-361v-288h291q14 0 24.5 -10.5t10.5 -24.5t-10.5 -24.5t-24.5 -10.5h-291v-202h361q14 0 24.5 -10.5t10.5 -24.5t-10.5 -24.5t-24.5 -10.5h-396q-14 0 -24.5 10.5t-10.5 24.5
v630zM331.004 851q0 14 -10.499 24.5q-10.498 10.5 -24.4971 10.5q-10.998 0 -18.9971 -6t-12.999 -15l-24.9961 -62q-1 -3 -1 -9q0 -14 10.498 -24.5q10.499 -10.5 24.4971 -10.5q10.999 0 19.498 5.5t12.498 15.5l24.9971 62q1 3 1 9z" />
    <glyph glyph-name="agrave" unicode="&#xe0;" horiz-adv-x="619" 
d="M507 35v3v29l-11 -11q-37 -37 -87 -58.5t-107 -21.5t-107 21.5t-87.5 59t-59 87.5t-21.5 107t21.5 107t59 87.5t87.5 59t107 21.5t107 -21.5t87.5 -59t59 -87.5t21.5 -107v-216q0 -14 -10.5 -24.5t-24.5 -10.5t-24.5 10.5t-10.5 24.5zM97 251q0 -42 16 -79.5t44 -65.5
t65.5 -44t79.5 -16t79.5 16t65.5 44t44 65q14 34 16 71v9q0 42 -16 79.5t-44 65.5t-65.5 44t-79.5 16t-79.5 -16t-65.5 -44t-44 -65.5t-16 -79.5zM238 654q0 14 10.5 24.5t24.5 10.5q11 0 19 -6t13 -15l25 -62q1 -3 1 -9q0 -14 -10.5 -24.5t-24.5 -10.5q-11 0 -19.5 5.5
t-12.5 15.5l-25 62q-1 3 -1 9z" />
    <glyph glyph-name="aacute" unicode="&#xe1;" horiz-adv-x="615" 
d="M507 35v3v29l-11 -11q-37 -37 -87 -58.5t-107 -21.5t-107 21.5t-87.5 59t-59 87.5t-21.5 107t21.5 107t59 87.5t87.5 59t107 21.5t107 -21.5t87.5 -59t59 -87.5t21.5 -107v-216q0 -14 -10.5 -24.5t-24.5 -10.5t-24.5 10.5t-10.5 24.5zM97 251q0 -42 16 -79.5t44 -65.5
t65.5 -44t79.5 -16t79.5 16t65.5 44t44 65q14 34 16 71v9q0 42 -16 79.5t-44 65.5t-65.5 44t-79.5 16t-79.5 -16t-65.5 -44t-44 -65.5t-16 -79.5zM355.004 654q0 14 -10.499 24.5q-10.498 10.5 -24.4971 10.5q-10.998 0 -18.9971 -6t-12.999 -15l-24.9961 -62q-1 -3 -1 -9
q0 -14 10.498 -24.5q10.499 -10.5 24.4971 -10.5q10.999 0 19.498 5.5t12.498 15.5l24.9971 62q1 3 1 9z" />
    <glyph glyph-name="copyright" unicode="&#xa9;" horiz-adv-x="803" 
d="M28 350q0 77 29.5 145t80.5 119t119 80.5t145 29.5t145 -29.5t119 -80.5t80.5 -119t29.5 -145t-29.5 -145t-80.5 -119t-119 -80.5t-145 -29.5t-145 29.5t-119 80.5t-80.5 119t-29.5 145zM98 350q0 -62 24 -117.5t65.5 -97t97 -65.5t117.5 -24t117 24t96.5 65.5t65.5 97
t24 117.5t-24 117t-65.5 96.5t-96.5 65.5t-117 24t-117.5 -24t-97 -65.5t-65.5 -96.5t-24 -117zM551 246q8 12 17.5 21t21.5 7q14 -2 20 -13t2 -25q-6 -19 -26 -42q-40 -50 -84 -69t-95 -19q-50 0 -94 19t-77 52t-52 77t-19 94.5t19 94.5t52 77t77 52t94 19q51 0 95 -19
t84 -63q23 -27 27 -48q5 -28 -18 -34q-15 -3 -24 6.5t-19 20.5q-29 42 -68.5 58.5t-76.5 16.5t-70 -14t-57.5 -38.5t-38.5 -57.5t-14 -70t14 -70t38.5 -58t57.5 -39t70 -14t73.5 17t70.5 61z" />
    <glyph glyph-name="Igrave" unicode="&#xcc;" horiz-adv-x="157" 
d="M44 665q0 14 10.5 24.5t24.5 10.5t24.5 -10.5t10.5 -24.5v-630q0 -14 -10.5 -24.5t-24.5 -10.5t-24.5 10.5t-10.5 24.5v630zM16 851q0 14 10.5 24.5t24.5 10.5q11 0 19 -6t13 -15l25 -62q1 -3 1 -9q0 -14 -10.5 -24.5t-24.5 -10.5q-11 0 -19.5 5.5t-12.5 15.5l-25 62
q-1 3 -1 9z" />
    <glyph glyph-name="Iacute" unicode="&#xcd;" horiz-adv-x="153" 
d="M42 665q0 14 10.5 24.5t24.5 10.5t24.5 -10.5t10.5 -24.5v-630q0 -14 -10.5 -24.5t-24.5 -10.5t-24.5 10.5t-10.5 24.5v630zM138.004 851q0 14 -10.499 24.5q-10.498 10.5 -24.4971 10.5q-10.998 0 -18.9971 -6t-12.999 -15l-24.9961 -62q-1 -3 -1 -9q0 -14 10.498 -24.5
q10.499 -10.5 24.4971 -10.5q10.999 0 19.498 5.5t12.498 15.5l24.9971 62q1 3 1 9z" />
    <glyph glyph-name="Ograve" unicode="&#xd2;" horiz-adv-x="806" 
d="M28 350q0 77 29.5 145t80.5 119t119 80.5t145 29.5t145 -29.5t119 -80.5t80.5 -119t29.5 -145t-29.5 -145t-80.5 -119t-119 -80.5t-145 -29.5t-145 29.5t-119 80.5t-80.5 119t-29.5 145zM98 350q0 -62 24 -117.5t65.5 -97t97 -65.5t117.5 -24t117 24t96.5 65.5t65.5 97
t24 117.5t-24 117t-65.5 96.5t-96.5 65.5t-117 24t-117.5 -24t-97 -65.5t-65.5 -96.5t-24 -117zM342 851q0 14 10.5 24.5t24.5 10.5q11 0 19 -6t13 -15l25 -62q1 -3 1 -9q0 -14 -10.5 -24.5t-24.5 -10.5q-11 0 -19.5 5.5t-12.5 15.5l-25 62q-1 3 -1 9z" />
    <glyph glyph-name="Oacute" unicode="&#xd3;" horiz-adv-x="815" 
d="M28 350q0 77 29.5 145t80.5 119t119 80.5t145 29.5t145 -29.5t119 -80.5t80.5 -119t29.5 -145t-29.5 -145t-80.5 -119t-119 -80.5t-145 -29.5t-145 29.5t-119 80.5t-80.5 119t-29.5 145zM98 350q0 -62 24 -117.5t65.5 -97t97 -65.5t117.5 -24t117 24t96.5 65.5t65.5 97
t24 117.5t-24 117t-65.5 96.5t-96.5 65.5t-117 24t-117.5 -24t-97 -65.5t-65.5 -96.5t-24 -117zM467.004 851q0 14 -10.499 24.5q-10.498 10.5 -24.4971 10.5q-10.998 0 -18.9971 -6t-12.999 -15l-24.9961 -62q-1 -3 -1 -9q0 -14 10.498 -24.5q10.499 -10.5 24.4971 -10.5
q10.999 0 19.498 5.5t12.498 15.5l24.9971 62q1 3 1 9z" />
    <glyph glyph-name="Ugrave" unicode="&#xd9;" horiz-adv-x="541" 
d="M432 665q0 14 10.5 24.5t24.5 10.5t24.5 -10.5t10.5 -24.5v-456q0 -49 -18 -91.5t-49.5 -74t-74 -49.5t-91.5 -18t-91.5 18t-74 49.5t-49.5 74t-18 91.5v453q0 17 10.5 27.5t24.5 10.5t24.5 -10.5t10.5 -24.5v-456q0 -34 12.5 -64t34.5 -52t52 -34.5t64 -12.5t64 12.5
t52 34.5t34.5 52t12.5 64v456zM210 851q0 14 10.5 24.5t24.5 10.5q11 0 19 -6t13 -15l25 -62q1 -3 1 -9q0 -14 -10.5 -24.5t-24.5 -10.5q-11 0 -19.5 5.5t-12.5 15.5l-25 62q-1 3 -1 9z" />
    <glyph glyph-name="Uacute" unicode="&#xda;" horiz-adv-x="541" 
d="M432 665q0 14 10.5 24.5t24.5 10.5t24.5 -10.5t10.5 -24.5v-456q0 -49 -18 -91.5t-49.5 -74t-74 -49.5t-91.5 -18t-91.5 18t-74 49.5t-49.5 74t-18 91.5v453q0 17 10.5 27.5t24.5 10.5t24.5 -10.5t10.5 -24.5v-456q0 -34 12.5 -64t34.5 -52t52 -34.5t64 -12.5t64 12.5
t52 34.5t34.5 52t12.5 64v456zM333.004 851q0 14 -10.499 24.5q-10.498 10.5 -24.4971 10.5q-10.998 0 -18.9971 -6t-12.999 -15l-24.9961 -62q-1 -3 -1 -9q0 -14 10.498 -24.5q10.499 -10.5 24.4971 -10.5q10.999 0 19.498 5.5t12.498 15.5l24.9971 62q1 3 1 9z" />
    <glyph glyph-name="multiply" unicode="&#xd7;" horiz-adv-x="353" 
d="M56 399q11 10 25 10t25 -10l70 -70l72 72q10 10 24.5 10t24.5 -10q11 -11 11 -25t-11 -25l-72 -72l72 -72q11 -11 11 -25t-11 -25q-10 -10 -24.5 -10t-24.5 10l-72 73l-70 -70q-11 -11 -25 -11t-25 11q-10 10 -10 24.5t10 24.5l70 70l-70 70q-10 10 -10 24.5t10 25.5z
" />
    <glyph glyph-name="acute" unicode="&#xb4;" horiz-adv-x="161" 
d="M125 665q0 -6 -1 -9l-25 -62q-4 -10 -12.5 -15.5t-19.5 -5.5q-14 0 -24.5 10.5t-10.5 24.5q0 6 1 9l25 62q5 9 13 15t19 6q14 0 24.5 -10.5t10.5 -24.5z" />
    <glyph glyph-name="egrave" unicode="&#xe8;" horiz-adv-x="604" 
d="M535 272h-437q-1 -11 -1 -21q0 -42 16 -79.5t44 -65.5t65.5 -44t79.5 -16t79.5 16t65.5 44q15 15 22 25q5 8 13 14.5t19 6.5q14 0 24.5 -10.5t10.5 -24.5v-4q-2 -19 -39.5 -56.5t-87.5 -59t-107 -21.5t-107 21.5t-87.5 59t-59 87.5t-21.5 107t21.5 107t59 87.5t87.5 59
t107 21.5t107 -21.5t87.5 -59t58.5 -87.5q12 -31 14 -42q5 -24 -5.5 -34t-28.5 -10zM447 396q-28 28 -65.5 44t-79.5 16t-79.5 -16t-65.5 -44q-24 -24 -39 -54h367q-15 30 -38 54zM237 654q0 14 10.5 24.5t24.5 10.5q11 0 19 -6t13 -15l25 -62q1 -3 1 -9q0 -14 -10.5 -24.5
t-24.5 -10.5q-11 0 -19.5 5.5t-12.5 15.5l-25 62q-1 3 -1 9z" />
    <glyph glyph-name="eacute" unicode="&#xe9;" horiz-adv-x="604" 
d="M535 272h-437q-1 -11 -1 -21q0 -42 16 -79.5t44 -65.5t65.5 -44t79.5 -16t79.5 16t65.5 44q15 15 22 25q5 8 13 14.5t19 6.5q14 0 24.5 -10.5t10.5 -24.5v-4q-2 -19 -39.5 -56.5t-87.5 -59t-107 -21.5t-107 21.5t-87.5 59t-59 87.5t-21.5 107t21.5 107t59 87.5t87.5 59
t107 21.5t107 -21.5t87.5 -59t58.5 -87.5q12 -31 14 -42q5 -24 -5.5 -34t-28.5 -10zM447 396q-28 28 -65.5 44t-79.5 16t-79.5 -16t-65.5 -44q-24 -24 -39 -54h367q-15 30 -38 54zM365.004 654q0 14 -10.499 24.5q-10.498 10.5 -24.4971 10.5q-10.998 0 -18.9971 -6
t-12.999 -15l-24.9961 -62q-1 -3 -1 -9q0 -14 10.498 -24.5q10.499 -10.5 24.4971 -10.5q10.999 0 19.498 5.5t12.498 15.5l24.9971 62q1 3 1 9z" />
    <glyph glyph-name="parenleft" unicode="(" horiz-adv-x="238" 
d="M106 -70q0 -16 6.5 -30t17.5 -24t25 -16q12 -5 27 -6h3q14 0 24.5 -10.5t10.5 -24.5t-10.5 -24.5t-24.5 -10.5h-3q-29 0 -55 11q-27 11 -47 30.5t-32 46.5t-12 58v747q0 31 12 58t32 46.5t47 30.5q26 11 55 11h3q14 0 24.5 -10.5t10.5 -24.5t-10.5 -24.5t-24.5 -10.5h-3
q-15 -1 -27 -6q-14 -6 -25 -16t-17.5 -24t-6.5 -30v-747z" />
    <glyph glyph-name="parenright" unicode=")" horiz-adv-x="240" 
d="M136 677q0 16 -6.5 30t-17.5 24t-25 16q-12 5 -27 6h-3q-14 0 -24.5 10.5t-10.5 24.5t10.5 24.5t24.5 10.5h3q29 0 55 -11q27 -11 47 -30.5t32 -46.5t12 -58v-747q0 -31 -12 -58t-32 -46.5t-47 -30.5q-26 -11 -55 -11h-3q-14 0 -24.5 10.5t-10.5 24.5t10.5 24.5
t24.5 10.5h3q15 1 27 6q14 6 25 16t17.5 24t6.5 30v747z" />
    <glyph glyph-name="quotesinglbase" unicode="&#x201a;" 
d="M21 42q0 18 12 30t30 12t30 -12t12 -30v-19q0 -20 -13.5 -33.5t-33.5 -13.5h-6.5t-5.5 2q17 3 17 22q-18 0 -30 12t-12 30z" />
    <glyph glyph-name="quotedblbase" unicode="&#x201e;" horiz-adv-x="260" 
d="M25 42q0 18 12 30t30 12t30 -12t12 -30v-39q0 -13 -5.5 -26t-19.5 -22q-25 -13 -32 -5t4 18q24 13 17 32q-28 0 -38 12t-10 30zM155 42q0 18 12 30t30 12t30 -12t12 -30v-39q0 -13 -5.5 -26t-19.5 -22q-25 -13 -32 -5t4 18q24 13 17 32q-28 0 -38 12t-10 30z" />
    <glyph glyph-name="ellipsis" unicode="&#x2026;" horiz-adv-x="365" 
d="M37 42q0 18 12 30t30 12t30 -12t12 -30t-12 -30t-30 -12t-30 12t-12 30zM141 42q0 18 12 30t30 12t30 -12t12 -30t-12 -30t-30 -12t-30 12t-12 30zM245 42q0 18 12 30t30 12t30 -12t12 -30t-12 -30t-30 -12t-30 12t-12 30z" />
    <glyph glyph-name="dieresis" unicode="&#xa8;" horiz-adv-x="316" 
d="M36 785q0 18 12 30t30 12t30 -12t12 -30t-12 -30t-30 -12t-30 12t-12 30zM196 785q0 18 12 30t30 12t30 -12t12 -30t-12 -30t-30 -12t-30 12t-12 30z" />
    <glyph glyph-name="periodcentered" unicode="&#xb7;" horiz-adv-x="141" 
d="M29 315q0 18 12 30t30 12t30 -12t12 -30t-12 -30t-30 -12t-30 12t-12 30z" />
    <glyph glyph-name="quotedbl" unicode="&#x22;" horiz-adv-x="241" 
d="M36 665q0 14 10.5 24.5t24.5 10.5t24.5 -10.5t10.5 -24.5v-93q0 -14 -10.5 -24.5t-24.5 -10.5t-24.5 10.5t-10.5 24.5v93zM136 665q0 14 10.5 24.5t24.5 10.5t24.5 -10.5t10.5 -24.5v-93q0 -14 -10.5 -24.5t-24.5 -10.5t-24.5 10.5t-10.5 24.5v93z" />
    <glyph glyph-name="quoteleft" unicode="&#x2018;" horiz-adv-x="135" 
d="M112 605q0 -18 -12 -30t-30 -12t-30 12t-12 30v39q0 13 5.5 26t19.5 22q25 13 32 5t-4 -18q-24 -13 -17 -32q28 0 38 -12t10 -30z" />
    <glyph glyph-name="registered" unicode="&#xae;" horiz-adv-x="803" 
d="M28 350q0 77 29.5 145t80.5 119t119 80.5t145 29.5t145 -29.5t119 -80.5t80.5 -119t29.5 -145t-29.5 -145t-80.5 -119t-119 -80.5t-145 -29.5t-145 29.5t-119 80.5t-80.5 119t-29.5 145zM98 350q0 -62 24 -117.5t65.5 -97t97 -65.5t117.5 -24t117 24t96.5 65.5t65.5 97
t24 117.5t-24 117t-65.5 96.5t-96.5 65.5t-117 24t-117.5 -24t-97 -65.5t-65.5 -96.5t-24 -117zM269 602h129q95 0 136.5 -42.5t41.5 -98.5t-31 -81q-30 -24 -51 -27q18 -2 49 -26q32 -26 32 -85v-85q0 -14 -10.5 -24.5t-24.5 -10.5t-24.5 10.5t-10.5 24.5v78q0 51 -32 68.5
t-64 17.5h-70v-161v-3q0 -14 -10.5 -24.5t-24.5 -10.5t-24.5 10.5t-10.5 24.5v445zM505 465q0 29 -22.5 51.5t-83.5 22.5h-60v-152h60q54 0 79.5 15t26.5 57v6z" />
    <glyph glyph-name="Ydieresis" unicode="&#x178;" horiz-adv-x="541" 
d="M239 273l-197 372q-2 4 -4 8.5t-2 11.5q0 14 10.5 24.5t24.5 10.5q16 0 22.5 -8t9.5 -13l171 -336l172 338q10 19 31 19q14 0 24.5 -10.5t10.5 -24.5q0 -4 -1 -8t-5 -11l-197 -371v-240q0 -14 -10.5 -24.5t-24.5 -10.5t-24.5 10.5t-10.5 24.5v238zM153 839q0 18 12 30
t30 12t30 -12t12 -30t-12 -30t-30 -12t-30 12t-12 30zM313 839q0 18 12 30t30 12t30 -12t12 -30t-12 -30t-30 -12t-30 12t-12 30z" />
    <glyph glyph-name="dagger" unicode="&#x2020;" horiz-adv-x="349" 
d="M4 465q0 14 10.5 24.5t24.5 10.5h100v289q0 14 10.5 24.5t24.5 10.5t24.5 -10.5t10.5 -24.5v-289h101q14 0 24.5 -10.5t10.5 -24.5t-10.5 -24.5t-24.5 -10.5h-3h-98v-595q0 -14 -10.5 -24.5t-24.5 -10.5t-24.5 10.5t-10.5 24.5v3v592h-100q-14 0 -24.5 10.5t-10.5 24.5z
" />
    <glyph glyph-name="daggerdbl" unicode="&#x2021;" horiz-adv-x="485" 
d="M4 254q0 14 10.5 24.5t24.5 10.5h100v141h-100q-14 0 -24.5 10.5t-10.5 24.5t10.5 24.5t24.5 10.5h100v289q0 14 10.5 24.5t24.5 10.5t24.5 -10.5t10.5 -24.5v-289h101q14 0 24.5 -10.5t10.5 -24.5t-10.5 -24.5t-24.5 -10.5h-101v-141h101q14 0 24.5 -10.5t10.5 -24.5
t-10.5 -24.5t-24.5 -10.5h-101v-384q0 -14 -10.5 -24.5t-24.5 -10.5t-24.5 10.5t-10.5 24.5v384h-100q-14 0 -24.5 10.5t-10.5 24.5z" />
    <glyph glyph-name="plusminus" unicode="&#xb1;" horiz-adv-x="378" 
d="M19 35q0 14 10.5 24.5t24.5 10.5h271q14 0 24.5 -10.5t10.5 -24.5t-10.5 -24.5t-24.5 -10.5h-3h-265h-3q-14 0 -24.5 10.5t-10.5 24.5zM188 476q14 0 24.5 -10.5t10.5 -24.5v-99h102q14 0 24.5 -10.5t10.5 -24.5t-10.5 -24.5t-24.5 -10.5h-102v-102q0 -14 -10.5 -24.5
t-24.5 -10.5t-24.5 10.5t-10.5 24.5v102h-99q-14 0 -24.5 10.5t-10.5 24.5t10.5 24.5t24.5 10.5h99v99q0 14 10.5 24.5t24.5 10.5z" />
    <glyph glyph-name="perthousand" unicode="&#x2030;" horiz-adv-x="496" 
d="M27 659q0 18 12 30t30 12t30 -12t12 -30t-12 -30t-30 -12t-30 12t-12 30zM246 42q0 18 12 30t30 12t30 -12t12 -30t-12 -30t-30 -12t-30 12t-12 30zM246 676q5 14 17.5 20.5t26.5 1.5t20.5 -17.5t1.5 -26.5l-209 -630q-5 -14 -17.5 -20.5t-26.5 -1.5t-20.5 17.5
t-1.5 26.5zM376 42q0 18 12 30t30 12t30 -12t12 -30t-12 -30t-30 -12t-30 12t-12 30z" />
    <glyph glyph-name="bullet" unicode="&#x2022;" horiz-adv-x="228" 
d="M29 299q0 37 24.5 61.5t60.5 24.5q37 0 61.5 -24.5t24.5 -61.5q0 -36 -24.5 -60.5t-61.5 -24.5q-36 0 -60.5 24.5t-24.5 60.5z" />
    <glyph glyph-name="circumflex" unicode="&#x2c6;" horiz-adv-x="315" 
d="M38 594q0 12 8 22q21 26 32.5 40.5t17.5 21.5t7.5 9t3.5 4q9 9 22 9h3h54q9 0 16.5 -4.5t12.5 -11.5l58 -71q5 -8 5 -17t-4.5 -17t-12.5 -13.5t-18 -5.5q-9 0 -16.5 4.5t-12.5 10.5l-57 69l-57 -71q-10 -13 -28 -13q-14 0 -24 10t-10 24z" />
    <glyph glyph-name="oe" unicode="&#x153;" horiz-adv-x="1085" 
d="M28 251q0 57 21.5 107t59 87.5t87.5 59t107 21.5t107 -21.5t87.5 -59t59 -87.5t21.5 -107t-21.5 -107t-59 -87.5t-87.5 -59t-107 -21.5t-107 21.5t-87.5 59t-59 87.5t-21.5 107zM98 251q0 -42 16 -79.5t44 -65.5t65.5 -44t79.5 -16t79.5 16t65.5 44t44 65.5t16 79.5
t-16 79.5t-44 65.5t-65.5 44t-79.5 16t-79.5 -16t-65.5 -44t-44 -65.5t-16 -79.5zM1016 272h-437q-1 -11 -1 -21q0 -42 16 -79.5t44 -65.5t65.5 -44t79.5 -16t79.5 16t65.5 44q15 15 22 25q5 8 13 14.5t19 6.5q14 0 24.5 -10.5t10.5 -24.5v-4q-2 -19 -39.5 -56.5t-87.5 -59
t-107 -21.5t-107 21.5t-87.5 59t-59 87.5t-21.5 107t21.5 107t59 87.5t87.5 59t107 21.5t107 -21.5t87.5 -59t58.5 -87.5q12 -31 14 -42q5 -24 -5.5 -34t-28.5 -10zM928 396q-28 28 -65.5 44t-79.5 16t-79.5 -16t-65.5 -44q-24 -24 -39 -54h367q-15 30 -38 54z" />
    <glyph glyph-name="endash" unicode="&#x2013;" horiz-adv-x="494" 
d="M40 265q0 14 10.5 24.5t24.5 10.5h344q14 0 24.5 -10.5t10.5 -24.5t-10.5 -24.5t-24.5 -10.5h-3h-338h-3q-14 0 -24.5 10.5t-10.5 24.5z" />
    <glyph glyph-name="emdash" unicode="&#x2014;" horiz-adv-x="574" 
d="M40 265q0 14 10.5 24.5t24.5 10.5h434q14 0 24.5 -10.5t10.5 -24.5t-10.5 -24.5t-24.5 -10.5h-3h-428h-3q-14 0 -24.5 10.5t-10.5 24.5z" />
    <glyph glyph-name="Idieresis" unicode="&#xcf;" horiz-adv-x="152" 
d="M40 665q0 14 10.5 24.5t24.5 10.5t24.5 -10.5t10.5 -24.5v-630q0 -14 -10.5 -24.5t-24.5 -10.5t-24.5 10.5t-10.5 24.5v630zM-45 839q0 18 12 30t30 12t30 -12t12 -30t-12 -30t-30 -12t-30 12t-12 30zM115 839q0 18 12 30t30 12t30 -12t12 -30t-12 -30t-30 -12t-30 12
t-12 30z" />
    <glyph glyph-name="Edieresis" unicode="&#xcb;" horiz-adv-x="541" 
d="M40 665q0 14 10.5 24.5t24.5 10.5h396q14 0 24.5 -10.5t10.5 -24.5t-10.5 -24.5t-24.5 -10.5h-361v-288h291q14 0 24.5 -10.5t10.5 -24.5t-10.5 -24.5t-24.5 -10.5h-291v-202h361q14 0 24.5 -10.5t10.5 -24.5t-10.5 -24.5t-24.5 -10.5h-396q-14 0 -24.5 10.5t-10.5 24.5
v630zM155 839q0 18 12 30t30 12t30 -12t12 -30t-12 -30t-30 -12t-30 12t-12 30zM315 839q0 18 12 30t30 12t30 -12t12 -30t-12 -30t-30 -12t-30 12t-12 30z" />
    <glyph glyph-name="Adieresis" unicode="&#xc4;" horiz-adv-x="557" 
d="M490 0q-27 0 -34 25l-79 247h-201l-79 -249q-10 -23 -33 -23q-14 0 -24.5 10.5t-10.5 24.5q0 3 0.5 5.5t1.5 5.5l195 611q5 18 19 31t31 13q18 0 32 -13t19 -31l194 -607q7 -17 -2 -33.5t-29 -16.5zM199 342h156l-78 253zM155 838q0 18 12 30t30 12t30 -12t12 -30
t-12 -30t-30 -12t-30 12t-12 30zM315 838q0 18 12 30t30 12t30 -12t12 -30t-12 -30t-30 -12t-30 12t-12 30z" />
    <glyph glyph-name="edieresis" unicode="&#xeb;" horiz-adv-x="604" 
d="M535 272h-437q-1 -11 -1 -21q0 -42 16 -79.5t44 -65.5t65.5 -44t79.5 -16t79.5 16t65.5 44q15 15 22 25q5 8 13 14.5t19 6.5q14 0 24.5 -10.5t10.5 -24.5v-4q-2 -19 -39.5 -56.5t-87.5 -59t-107 -21.5t-107 21.5t-87.5 59t-59 87.5t-21.5 107t21.5 107t59 87.5t87.5 59
t107 21.5t107 -21.5t87.5 -59t58.5 -87.5q12 -31 14 -42q5 -24 -5.5 -34t-28.5 -10zM447 396q-28 28 -65.5 44t-79.5 16t-79.5 -16t-65.5 -44q-24 -24 -39 -54h367q-15 30 -38 54zM178 655q0 18 12 30t30 12t30 -12t12 -30t-12 -30t-30 -12t-30 12t-12 30zM338 655
q0 18 12 30t30 12t30 -12t12 -30t-12 -30t-30 -12t-30 12t-12 30z" />
    <glyph glyph-name="ae" unicode="&#xe6;" horiz-adv-x="1099" 
d="M522 35v3v29l-11 -11q-37 -37 -87 -58.5t-107 -21.5t-107 21.5t-87.5 59t-59 87.5t-21.5 107t21.5 107t59 87.5t87.5 59t107 21.5t107 -21.5t87.5 -59t59 -87.5t21.5 -107v-216q0 -14 -10.5 -24.5t-24.5 -10.5t-24.5 10.5t-10.5 24.5zM112 251q0 -42 16 -79.5t44 -65.5
t65.5 -44t79.5 -16t79.5 16t65.5 44t44 65q14 34 16 71v9q0 42 -16 79.5t-44 65.5t-65.5 44t-79.5 16t-79.5 -16t-65.5 -44t-44 -65.5t-16 -79.5zM1030 272h-437q-1 -11 -1 -21q0 -42 16 -79.5t44 -65.5t65.5 -44t79.5 -16t79.5 16t65.5 44q15 15 22 25q5 8 13 14.5t19 6.5
q14 0 24.5 -10.5t10.5 -24.5v-4q-2 -19 -39.5 -56.5t-87.5 -59t-107 -21.5t-107 21.5t-87.5 59t-59 87.5t-21.5 107t21.5 107t59 87.5t87.5 59t107 21.5t107 -21.5t87.5 -59t58.5 -87.5q12 -31 14 -42q5 -24 -5.5 -34t-28.5 -10zM942 396q-28 28 -65.5 44t-79.5 16
t-79.5 -16t-65.5 -44q-24 -24 -39 -54h367q-15 30 -38 54z" />
    <glyph glyph-name="tilde" unicode="&#x2dc;" horiz-adv-x="300" 
d="M55 796q-17 0 -28 14.5t-6 30.5q17 31 61.5 44t85.5 -10q15 -9 26 -8t19 10q12 14 28 14q14 0 24.5 -10.5t10.5 -24.5q0 -8 -3 -15q-17 -29 -59 -40.5t-83 12.5q-15 10 -27.5 7t-25.5 -15q-9 -9 -23 -9z" />
    <glyph glyph-name="asciitilde" unicode="~" horiz-adv-x="498" 
d="M28 400q0 14 10.5 24.5t24.5 10.5t24.5 -10.5t10.5 -24.5v-14q1 -26 19.5 -44.5t44.5 -18.5q22 0 39 14.5t35 31.5t41.5 31.5t58.5 14.5q28 0 52.5 -10.5t42.5 -28.5t28 -42.5t10 -52.5v-14q0 -14 -10.5 -24.5t-24.5 -10.5t-24.5 10.5t-10.5 24.5v14q-1 26 -19.5 44.5
t-44.5 18.5q-22 0 -38.5 -14.5t-34.5 -31.5t-41.5 -31.5t-59.5 -14.5q-28 0 -52.5 10.5t-42.5 28.5t-28 42.5t-10 52.5v11v3z" />
    <glyph glyph-name="guilsinglright" unicode="&#x203a;" horiz-adv-x="332" 
d="M31 34q0 13 10 25l189 190l-188 190l-3 3q-9 9 -9 23t10 24.5t24 10.5q8 0 15 -4.5t12 -9.5l211 -210q13 -11 13 -27q0 -14 -11 -25l-215 -215q-11 -9 -24 -9q-14 0 -24 10t-10 24z" />
    <glyph glyph-name="guilsinglleft" unicode="&#x2039;" horiz-adv-x="333" 
d="M314 34q0 -14 -10 -24t-24 -10t-24 9l-215 215q-11 11 -11 25q0 16 13 27l211 210q5 5 12 9.5t15 4.5q14 0 24 -10.5t10 -24.5t-9 -23l-3 -3l-188 -190l189 -190q10 -12 10 -25z" />
    <glyph glyph-name="guillemotright" unicode="&#xbb;" horiz-adv-x="535" 
d="M211 34q0 13 10 25l189 190l-188 190l-3 3q-9 9 -9 23t10 24.5t24 10.5q8 0 15 -4.5t12 -9.5l211 -210q13 -11 13 -27q0 -14 -11 -25l-215 -215q-11 -9 -24 -9q-14 0 -24 10t-10 24zM51 34q0 13 10 25l189 190l-188 190l-3 3q-9 9 -9 23t10 24.5t24 10.5q8 0 15 -4.5
t12 -9.5l211 -210q13 -11 13 -27q0 -14 -11 -25l-215 -215q-11 -9 -24 -9q-14 0 -24 10t-10 24z" />
    <glyph glyph-name="guillemotleft" unicode="&#xab;" horiz-adv-x="535" 
d="M314 34q0 -14 -10 -24t-24 -10t-24 9l-215 215q-11 11 -11 25q0 16 13 27l211 210q5 5 12 9.5t15 4.5q14 0 24 -10.5t10 -24.5t-9 -23l-3 -3l-188 -190l189 -190q10 -12 10 -25zM474 34q0 -14 -10 -24t-24 -10t-24 9l-215 215q-11 11 -11 25q0 16 13 27l211 210
q5 5 12 9.5t15 4.5q14 0 24 -10.5t10 -24.5t-9 -23l-3 -3l-188 -190l189 -190q10 -12 10 -25z" />
    <glyph glyph-name="quoteright" unicode="&#x2019;" 
d="M28 658q0 18 12 30t30 12t30 -12t12 -30v-39q0 -13 -5.5 -26t-19.5 -22q-25 -13 -32 -5t4 18q24 13 17 32q-28 0 -38 12t-10 30z" />
    <glyph glyph-name="questiondown" unicode="&#xbf;" horiz-adv-x="496" 
d="M451 169q37 -10 18 -47q-22 -44 -80 -83t-136 -39q-51 0 -96 19.5t-78.5 53t-53 78.5t-19.5 96q0 47 16.5 89t45.5 74.5t68.5 53.5t84.5 27v43q0 14 10.5 24.5t24.5 10.5t24.5 -10.5t10.5 -24.5v-72q0 -14 -10.5 -24.5t-24.5 -10.5h-3q-38 0 -70 -14q-33 -14 -57.5 -38.5
t-38.5 -57t-14 -70.5q0 -37 14 -70t38.5 -57.5t57.5 -38.5t70 -14q50 0 89 19t72 63q6 9 14.5 16.5t22.5 3.5zM213 658q0 18 12 30t30 12t30 -12t12 -30t-12 -30t-30 -12t-30 12t-12 30z" />
    <glyph glyph-name="udieresis" unicode="&#xfc;" horiz-adv-x="524" 
d="M37 465q0 14 10.5 24.5t24.5 10.5t24.5 -10.5t10.5 -24.5v-240q0 -32 12 -60t33 -48.5t48.5 -32.5t59.5 -12t60 12t49 32.5t33 48.5t12 60v240q0 14 10.5 24.5t24.5 10.5t24.5 -10.5t10.5 -24.5v-240q0 -46 -17.5 -87t-48 -71.5t-71.5 -48.5t-87 -18t-87 18t-71.5 48.5
t-47.5 71t-17 87.5v240zM140 655q0 18 12 30t30 12t30 -12t12 -30t-12 -30t-30 -12t-30 12t-12 30zM300 655q0 18 12 30t30 12t30 -12t12 -30t-12 -30t-30 -12t-30 12t-12 30z" />
    <glyph glyph-name="ucircumflex" unicode="&#xfb;" horiz-adv-x="524" 
d="M37 465q0 14 10.5 24.5t24.5 10.5t24.5 -10.5t10.5 -24.5v-240q0 -32 12 -60t33 -48.5t48.5 -32.5t59.5 -12t60 12t49 32.5t33 48.5t12 60v240q0 14 10.5 24.5t24.5 10.5t24.5 -10.5t10.5 -24.5v-240q0 -46 -17.5 -87t-48 -71.5t-71.5 -48.5t-87 -18t-87 18t-71.5 48.5
t-47.5 71t-17 87.5v240zM141 594q0 12 8 22q21 26 32.5 40.5t17.5 21.5t7.5 9t3.5 4q9 9 22 9h3h54q9 0 16.5 -4.5t12.5 -11.5l58 -71q5 -8 5 -17t-4.5 -17t-12.5 -13.5t-18 -5.5q-9 0 -16.5 4.5t-12.5 10.5l-57 69l-57 -71q-10 -13 -28 -13q-14 0 -24 10t-10 24z" />
    <glyph glyph-name="uacute" unicode="&#xfa;" horiz-adv-x="522" 
d="M37 465q0 14 10.5 24.5t24.5 10.5t24.5 -10.5t10.5 -24.5v-240q0 -32 12 -60t33 -48.5t48.5 -32.5t59.5 -12t60 12t49 32.5t33 48.5t12 60v240q0 14 10.5 24.5t24.5 10.5t24.5 -10.5t10.5 -24.5v-240q0 -46 -17.5 -87t-48 -71.5t-71.5 -48.5t-87 -18t-87 18t-71.5 48.5
t-47.5 71t-17 87.5v240zM320 654q0 -6 -1 -9l-25 -62q-4 -10 -12.5 -15.5t-19.5 -5.5q-14 0 -24.5 10.5t-10.5 24.5q0 6 1 9l25 62q5 9 13 15t19 6q14 0 24.5 -10.5t10.5 -24.5z" />
    <glyph glyph-name="ugrave" unicode="&#xf9;" horiz-adv-x="524" 
d="M37 465q0 14 10.5 24.5t24.5 10.5t24.5 -10.5t10.5 -24.5v-240q0 -32 12 -60t33 -48.5t48.5 -32.5t59.5 -12t60 12t49 32.5t33 48.5t12 60v240q0 14 10.5 24.5t24.5 10.5t24.5 -10.5t10.5 -24.5v-240q0 -46 -17.5 -87t-48 -71.5t-71.5 -48.5t-87 -18t-87 18t-71.5 48.5
t-47.5 71t-17 87.5v240zM199 654q0 14 10.5 24.5t24.5 10.5q11 0 19 -6t13 -15l25 -62q1 -3 1 -9q0 -14 -10.5 -24.5t-24.5 -10.5q-11 0 -19.5 5.5t-12.5 15.5l-25 62q-1 3 -1 9z" />
    <glyph glyph-name="odieresis" unicode="&#xf6;" horiz-adv-x="601" 
d="M27 251q0 57 21.5 107t59 87.5t87.5 59t107 21.5t107 -21.5t87.5 -59t59 -87.5t21.5 -107t-21.5 -107t-59 -87.5t-87.5 -59t-107 -21.5t-107 21.5t-87.5 59t-59 87.5t-21.5 107zM97 251q0 -42 16 -79.5t44 -65.5t65.5 -44t79.5 -16t79.5 16t65.5 44t44 65.5t16 79.5
t-16 79.5t-44 65.5t-65.5 44t-79.5 16t-79.5 -16t-65.5 -44t-44 -65.5t-16 -79.5zM179 654q0 18 12 30t30 12t30 -12t12 -30t-12 -30t-30 -12t-30 12t-12 30zM339 654q0 18 12 30t30 12t30 -12t12 -30t-12 -30t-30 -12t-30 12t-12 30z" />
    <glyph glyph-name="Ocircumflex" unicode="&#xd4;" horiz-adv-x="798" 
d="M24 350q0 77 29.5 145t80.5 119t119 80.5t145 29.5t145 -29.5t119 -80.5t80.5 -119t29.5 -145t-29.5 -145t-80.5 -119t-119 -80.5t-145 -29.5t-145 29.5t-119 80.5t-80.5 119t-29.5 145zM94 350q0 -62 24 -117.5t65.5 -97t97 -65.5t117.5 -24t117 24t96.5 65.5t65.5 97
t24 117.5t-24 117t-65.5 96.5t-96.5 65.5t-117 24t-117.5 -24t-97 -65.5t-65.5 -96.5t-24 -117zM276 793q0 12 8 22q21 26 32.5 40.5t17.5 21.5t7.5 9t3.5 4q9 9 22 9h3h54q9 0 16.5 -4.5t12.5 -11.5l58 -71q5 -8 5 -17t-4.5 -17t-12.5 -13.5t-18 -5.5q-9 0 -16.5 4.5
t-12.5 10.5l-57 69l-57 -71q-10 -13 -28 -13q-14 0 -24 10t-10 24z" />
    <glyph glyph-name="Yacute" unicode="&#xdd;" horiz-adv-x="559" 
d="M239 273l-197 372q-2 4 -4 8.5t-2 11.5q0 14 10.5 24.5t24.5 10.5q16 0 22.5 -8t9.5 -13l171 -336l172 338q10 19 31 19q14 0 24.5 -10.5t10.5 -24.5q0 -4 -1 -8t-5 -11l-197 -371v-240q0 -14 -10.5 -24.5t-24.5 -10.5t-24.5 10.5t-10.5 24.5v238zM332 851q0 -6 -1 -9
l-25 -62q-4 -10 -12.5 -15.5t-19.5 -5.5q-14 0 -24.5 10.5t-10.5 24.5q0 6 1 9l25 62q5 9 13 15t19 6q14 0 24.5 -10.5t10.5 -24.5z" />
    <glyph glyph-name="Ucircumflex" unicode="&#xdb;" horiz-adv-x="541" 
d="M432 665q0 14 10.5 24.5t24.5 10.5t24.5 -10.5t10.5 -24.5v-456q0 -49 -18 -91.5t-49.5 -74t-74 -49.5t-91.5 -18t-91.5 18t-74 49.5t-49.5 74t-18 91.5v453q0 17 10.5 27.5t24.5 10.5t24.5 -10.5t10.5 -24.5v-456q0 -34 12.5 -64t34.5 -52t52 -34.5t64 -12.5t64 12.5
t52 34.5t34.5 52t12.5 64v456zM149 793q0 12 8 22q21 26 32.5 40.5t17.5 21.5t7.5 9t3.5 4q9 9 22 9h3h54q9 0 16.5 -4.5t12.5 -11.5l58 -71q5 -8 5 -17t-4.5 -17t-12.5 -13.5t-18 -5.5q-9 0 -16.5 4.5t-12.5 10.5l-57 69l-57 -71q-10 -13 -28 -13q-14 0 -24 10t-10 24z" />
    <glyph glyph-name="acircumflex" unicode="&#xe2;" horiz-adv-x="617" 
d="M507 35v3v29l-11 -11q-37 -37 -87 -58.5t-107 -21.5t-107 21.5t-87.5 59t-59 87.5t-21.5 107t21.5 107t59 87.5t87.5 59t107 21.5t107 -21.5t87.5 -59t59 -87.5t21.5 -107v-216q0 -14 -10.5 -24.5t-24.5 -10.5t-24.5 10.5t-10.5 24.5zM97 251q0 -42 16 -79.5t44 -65.5
t65.5 -44t79.5 -16t79.5 16t65.5 44t44 65q14 34 16 71v9q0 42 -16 79.5t-44 65.5t-65.5 44t-79.5 16t-79.5 -16t-65.5 -44t-44 -65.5t-16 -79.5zM184 594q0 12 8 22q21 26 32.5 40.5t17.5 21.5t7.5 9t3.5 4q9 9 22 9h3h54q9 0 16.5 -4.5t12.5 -11.5l58 -71q5 -8 5 -17
t-4.5 -17t-12.5 -13.5t-18 -5.5q-9 0 -16.5 4.5t-12.5 10.5l-57 69l-57 -71q-10 -13 -28 -13q-14 0 -24 10t-10 24z" />
    <glyph glyph-name="ecircumflex" unicode="&#xea;" horiz-adv-x="604" 
d="M535 272h-437q-1 -11 -1 -21q0 -42 16 -79.5t44 -65.5t65.5 -44t79.5 -16t79.5 16t65.5 44q15 15 22 25q5 8 13 14.5t19 6.5q14 0 24.5 -10.5t10.5 -24.5v-4q-2 -19 -39.5 -56.5t-87.5 -59t-107 -21.5t-107 21.5t-87.5 59t-59 87.5t-21.5 107t21.5 107t59 87.5t87.5 59
t107 21.5t107 -21.5t87.5 -59t58.5 -87.5q12 -31 14 -42q5 -24 -5.5 -34t-28.5 -10zM447 396q-28 28 -65.5 44t-79.5 16t-79.5 -16t-65.5 -44q-24 -24 -39 -54h367q-15 30 -38 54zM183 595q0 12 8 22q21 26 32.5 40.5t17.5 21.5t7.5 9t3.5 4q9 9 22 9h3h54q9 0 16.5 -4.5
t12.5 -11.5l58 -71q5 -8 5 -17t-4.5 -17t-12.5 -13.5t-18 -5.5q-9 0 -16.5 4.5t-12.5 10.5l-57 69l-57 -71q-10 -13 -28 -13q-14 0 -24 10t-10 24z" />
    <glyph glyph-name="ograve" unicode="&#xf2;" horiz-adv-x="601" 
d="M27 251q0 57 21.5 107t59 87.5t87.5 59t107 21.5t107 -21.5t87.5 -59t59 -87.5t21.5 -107t-21.5 -107t-59 -87.5t-87.5 -59t-107 -21.5t-107 21.5t-87.5 59t-59 87.5t-21.5 107zM97 251q0 -42 16 -79.5t44 -65.5t65.5 -44t79.5 -16t79.5 16t65.5 44t44 65.5t16 79.5
t-16 79.5t-44 65.5t-65.5 44t-79.5 16t-79.5 -16t-65.5 -44t-44 -65.5t-16 -79.5zM238 654q0 14 10.5 24.5t24.5 10.5q11 0 19 -6t13 -15l25 -62q1 -3 1 -9q0 -14 -10.5 -24.5t-24.5 -10.5q-11 0 -19.5 5.5t-12.5 15.5l-25 62q-1 3 -1 9z" />
    <glyph glyph-name="oacute" unicode="&#xf3;" horiz-adv-x="601" 
d="M27 251q0 57 21.5 107t59 87.5t87.5 59t107 21.5t107 -21.5t87.5 -59t59 -87.5t21.5 -107t-21.5 -107t-59 -87.5t-87.5 -59t-107 -21.5t-107 21.5t-87.5 59t-59 87.5t-21.5 107zM97 251q0 -42 16 -79.5t44 -65.5t65.5 -44t79.5 -16t79.5 16t65.5 44t44 65.5t16 79.5
t-16 79.5t-44 65.5t-65.5 44t-79.5 16t-79.5 -16t-65.5 -44t-44 -65.5t-16 -79.5zM359 654q0 -6 -1 -9l-25 -62q-4 -10 -12.5 -15.5t-19.5 -5.5q-14 0 -24.5 10.5t-10.5 24.5q0 6 1 9l25 62q5 9 13 15t19 6q14 0 24.5 -10.5t10.5 -24.5z" />
    <glyph glyph-name="ocircumflex" unicode="&#xf4;" horiz-adv-x="601" 
d="M27 251q0 57 21.5 107t59 87.5t87.5 59t107 21.5t107 -21.5t87.5 -59t59 -87.5t21.5 -107t-21.5 -107t-59 -87.5t-87.5 -59t-107 -21.5t-107 21.5t-87.5 59t-59 87.5t-21.5 107zM97 251q0 -42 16 -79.5t44 -65.5t65.5 -44t79.5 -16t79.5 16t65.5 44t44 65.5t16 79.5
t-16 79.5t-44 65.5t-65.5 44t-79.5 16t-79.5 -16t-65.5 -44t-44 -65.5t-16 -79.5zM180 594q0 12 8 22q21 26 32.5 40.5t17.5 21.5t7.5 9t3.5 4q9 9 22 9h3h54q9 0 16.5 -4.5t12.5 -11.5l58 -71q5 -8 5 -17t-4.5 -17t-12.5 -13.5t-18 -5.5q-9 0 -16.5 4.5t-12.5 10.5l-57 69
l-57 -71q-10 -13 -28 -13q-14 0 -24 10t-10 24z" />
    <glyph glyph-name="Icircumflex" unicode="&#xce;" horiz-adv-x="150" 
d="M40 665q0 14 10.5 24.5t24.5 10.5t24.5 -10.5t10.5 -24.5v-630q0 -14 -10.5 -24.5t-24.5 -10.5t-24.5 10.5t-10.5 24.5v630zM-41 793q0 12 8 22q21 26 32.5 40.5t17.5 21.5t7.5 9t3.5 4q9 9 22 9h3h54q9 0 16.5 -4.5t12.5 -11.5l58 -71q5 -8 5 -17t-4.5 -17t-12.5 -13.5
t-18 -5.5q-9 0 -16.5 4.5t-12.5 10.5l-57 69l-57 -71q-10 -13 -28 -13q-14 0 -24 10t-10 24z" />
    <glyph glyph-name="Acircumflex" unicode="&#xc2;" horiz-adv-x="557" 
d="M490 0q-27 0 -34 25l-79 247h-201l-79 -249q-10 -23 -33 -23q-14 0 -24.5 10.5t-10.5 24.5q0 3 0.5 5.5t1.5 5.5l195 611q5 18 19 31t31 13q18 0 32 -13t19 -31l194 -607q7 -17 -2 -33.5t-29 -16.5zM199 342h156l-78 253zM158 792q0 12 8 22q21 26 32.5 40.5t17.5 21.5
t7.5 9t3.5 4q9 9 22 9h3h54q9 0 16.5 -4.5t12.5 -11.5l58 -71q5 -8 5 -17t-4.5 -17t-12.5 -13.5t-18 -5.5q-9 0 -16.5 4.5t-12.5 10.5l-57 69l-57 -71q-10 -13 -28 -13q-14 0 -24 10t-10 24z" />
    <glyph glyph-name="scaron" unicode="&#x161;" horiz-adv-x="406" 
d="M83 666q0 14 10 24t24 10q18 0 28 -13l57 -71l57 69q5 6 12.5 10.5t16.5 4.5q10 0 18 -5.5t12.5 -13.5t4.5 -17t-5 -17l-58 -71q-5 -7 -12.5 -11.5t-16.5 -4.5h-54h-3q-13 0 -22 9q-2 1 -3.5 3.5t-7.5 9.5t-17.5 21.5t-32.5 40.5q-8 10 -8 22zM24 116q0 15 9 25t24 10
q11 0 17.5 -6t10.5 -15q22 -48 52 -67t73 -18q49 0 73.5 23.5t26.5 56.5q1 34 -12.5 53t-39.5 31t-65 22t-72 24t-57 42t-29 70q-4 33 9 61t36.5 49.5t56.5 35t68 13.5q40 0 69.5 -13t43.5 -26.5t18 -20.5q7 -11 9.5 -22t0 -20.5t-10 -15.5t-20.5 -6q-10 0 -18 4t-16 18
q-9 16 -27.5 27t-48.5 11q-20 0 -43 -8t-42.5 -32t-14.5 -51q5 -24 23.5 -37t49 -24t67.5 -23t69.5 -32.5t50.5 -51.5t18 -78q0 -35 -14.5 -63t-39 -47t-57 -29t-67.5 -10t-69 12.5t-58.5 36.5t-37 45.5t-14.5 31.5q-2 8 -2 14z" />
    <glyph glyph-name="zcaron" unicode="&#x17e;" horiz-adv-x="400" 
d="M92 666q0 14 10 24t24 10q18 0 28 -13l57 -71l57 69q5 6 12.5 10.5t16.5 4.5q10 0 18 -5.5t12.5 -13.5t4.5 -17t-5 -17l-58 -71q-5 -7 -12.5 -11.5t-16.5 -4.5h-54h-3q-13 0 -22 9q-2 1 -3.5 3.5t-7.5 9.5t-17.5 21.5t-32.5 40.5q-8 10 -8 22zM33 465q0 14 10.5 24.5
t24.5 10.5h276q14 0 25 -10.5t11 -24.5q0 -6 -3 -12t-5 -9l-245 -374h217q14 0 24.5 -10.5t10.5 -24.5t-10.5 -24.5t-24.5 -10.5h-276q-14 0 -24.5 10.5t-10.5 24.5q0 10 5 18l246 377h-216q-14 0 -24.5 10.5t-10.5 24.5z" />
    <glyph glyph-name="Zcaron" unicode="&#x17d;" horiz-adv-x="515" 
d="M138 864q0 14 10 24t24 10q18 0 28 -13l57 -71l57 69q5 6 12.5 10.5t16.5 4.5q10 0 18 -5.5t12.5 -13.5t4.5 -17t-5 -17l-58 -71q-5 -7 -12.5 -11.5t-16.5 -4.5h-54h-3q-13 0 -22 9q-2 1 -3.5 3.5t-7.5 9.5t-17.5 21.5t-32.5 40.5q-8 10 -8 22zM24 665q0 14 10.5 24.5
t24.5 10.5h3h393q14 0 24.5 -10.5t10.5 -24.5q0 -11 -5 -18l-366 -577h336q14 0 24.5 -10.5t10.5 -24.5t-10.5 -24.5t-24.5 -10.5h-3h-390h-3q-14 0 -24.5 10.5t-10.5 24.5q0 10 5 18l366 577h-336q-14 0 -24.5 10.5t-10.5 24.5z" />
    <glyph glyph-name="Ecircumflex" unicode="&#xca;" horiz-adv-x="533" 
d="M40 665q0 14 10.5 24.5t24.5 10.5h396q14 0 24.5 -10.5t10.5 -24.5t-10.5 -24.5t-24.5 -10.5h-361v-288h291q14 0 24.5 -10.5t10.5 -24.5t-10.5 -24.5t-24.5 -10.5h-291v-202h361q14 0 24.5 -10.5t10.5 -24.5t-10.5 -24.5t-24.5 -10.5h-396q-14 0 -24.5 10.5t-10.5 24.5
v630zM152 793q0 12 8 22q21 26 32.5 40.5t17.5 21.5t7.5 9t3.5 4q9 9 22 9h3h54q9 0 16.5 -4.5t12.5 -11.5l58 -71q5 -8 5 -17t-4.5 -17t-12.5 -13.5t-18 -5.5q-9 0 -16.5 4.5t-12.5 10.5l-57 69l-57 -71q-10 -13 -28 -13q-14 0 -24 10t-10 24z" />
    <glyph glyph-name="ampersand" unicode="&#x26;" horiz-adv-x="634" 
d="M581 303q14 0 24.5 -10.5t10.5 -24.5t-10 -24l-3 -3l-84 -86l89 -98q8 -10 8 -22q0 -14 -10.5 -24.5t-24.5 -10.5q-17 0 -29 15l-82 91l-65 -64q-33 -33 -74 -49.5t-84.5 -16.5t-84.5 16t-74 49t-47.5 75.5t-11 88t27 89t67.5 77.5l62 51l-17 18q-29 32 -45 59.5
t-16 59.5q0 29 11 55t30 45t44.5 30t54.5 11t55 -11t45 -30t30 -45t11 -55q0 -41 -20.5 -70.5t-52.5 -52.5l-31 -22l187 -207l81 82q12 14 28 14zM423 158l-187 215l-64 -54q-38 -32 -56 -63t-20.5 -60t9 -55.5t34.5 -48.5q22 -23 50.5 -34t58 -11.5t57.5 10.5t51 34z
M178 559q1 -25 17 -45t30 -34l14 -15q8 5 21.5 13.5t26 20.5t22 27t9.5 33q0 29 -20.5 49.5t-49.5 20.5t-50 -20.5t-20 -49.5z" />
    <glyph glyph-name="cedilla" unicode="&#xb8;" horiz-adv-x="230" 
d="M40 -87v107h70v-75q21 0 40.5 -8.5t33.5 -22.5t22.5 -33t8.5 -41t-8.5 -41t-22.5 -33t-33.5 -22t-40.5 -8h-35q-14 0 -24.5 10.5t-10.5 24.5t10.5 24.5t24.5 10.5h3h32q14 0 24 10t10 24t-10 24.5t-24 10.5h-32h-3q-14 0 -24.5 10.5t-10.5 24.5v3z" />
    <glyph glyph-name="germandbls" unicode="&#xdf;" horiz-adv-x="481" 
d="M184 35q0 14 10.5 24.5t24.5 10.5h1q78 1 117 34q43 36 43 92q0 60 -43 94q-39 33 -117 32h-1q-14 0 -24.5 10.5t-10.5 24.5t10.5 24.5t24.5 10.5q37 -1 74 31q40 32 40 88q0 55 -40 89q-43 32 -113 32h-70v-594v-3q0 -14 -10.5 -24.5t-24.5 -10.5t-24.5 10.5t-10.5 24.5
v665h138q108 0 170 -50q60 -51 60 -139q0 -45 -15.5 -79t-44.5 -60q-2 -2 -4 -3q28 -11 50 -28q31 -29 47 -63.5t16 -82.5q0 -89 -63 -144q-64 -51 -172 -51h-3q-14 0 -24.5 10.5t-10.5 24.5z" />
    <glyph glyph-name="Atilde" unicode="&#xc3;" horiz-adv-x="557" 
d="M490 0q-27 0 -34 25l-79 247h-201l-79 -249q-10 -23 -33 -23q-14 0 -24.5 10.5t-10.5 24.5q0 3 0.5 5.5t1.5 5.5l195 611q5 18 19 31t31 13q18 0 32 -13t19 -31l194 -607q7 -17 -2 -33.5t-29 -16.5zM199 342h156l-78 253zM188 766q-17 0 -28 14.5t-6 30.5q17 31 61.5 44
t85.5 -10q15 -9 26 -8t19 10q12 14 28 14q14 0 24.5 -10.5t10.5 -24.5q0 -8 -3 -15q-17 -29 -59 -40.5t-83 12.5q-15 10 -27.5 7t-25.5 -15q-9 -9 -23 -9z" />
    <glyph glyph-name="atilde" unicode="&#xe3;" horiz-adv-x="619" 
d="M507 35v3v29l-11 -11q-37 -37 -87 -58.5t-107 -21.5t-107 21.5t-87.5 59t-59 87.5t-21.5 107t21.5 107t59 87.5t87.5 59t107 21.5t107 -21.5t87.5 -59t59 -87.5t21.5 -107v-216q0 -14 -10.5 -24.5t-24.5 -10.5t-24.5 10.5t-10.5 24.5zM97 251q0 -42 16 -79.5t44 -65.5
t65.5 -44t79.5 -16t79.5 16t65.5 44t44 65q14 34 16 71v9q0 42 -16 79.5t-44 65.5t-65.5 44t-79.5 16t-79.5 -16t-65.5 -44t-44 -65.5t-16 -79.5zM211 568q-17 0 -28 14.5t-6 30.5q17 31 61.5 44t85.5 -10q15 -9 26 -8t19 10q12 14 28 14q14 0 24.5 -10.5t10.5 -24.5
q0 -8 -3 -15q-17 -29 -59 -40.5t-83 12.5q-15 10 -27.5 7t-25.5 -15q-9 -9 -23 -9z" />
    <glyph glyph-name="ntilde" unicode="&#xf1;" horiz-adv-x="530" 
d="M39 465q0 14 10.5 24.5t24.5 10.5t24.5 -10.5t10.5 -24.5v-11q10 16 27 29.5t37.5 23t43.5 14.5t46 5q46 0 87 -18t71.5 -48.5t48.5 -72t16 -87.5v-265q0 -14 -10.5 -24.5t-24.5 -10.5t-24.5 10.5t-10.5 24.5v265q0 32 -12 60t-33 49t-49 33t-59 12t-59 -13t-49 -34.5
t-34 -49.5q-11 -25 -12 -50v-272q0 -14 -10.5 -24.5t-24.5 -10.5t-24.5 10.5t-10.5 24.5v430zM167 569q-17 0 -28 14.5t-6 30.5q17 31 61.5 44t85.5 -10q15 -9 26 -8t19 10q12 14 28 14q14 0 24.5 -10.5t10.5 -24.5q0 -8 -3 -15q-17 -29 -59 -40.5t-83 12.5q-15 10 -27.5 7
t-25.5 -15q-9 -9 -23 -9z" />
    <glyph glyph-name="otilde" unicode="&#xf5;" horiz-adv-x="601" 
d="M27 251q0 57 21.5 107t59 87.5t87.5 59t107 21.5t107 -21.5t87.5 -59t59 -87.5t21.5 -107t-21.5 -107t-59 -87.5t-87.5 -59t-107 -21.5t-107 21.5t-87.5 59t-59 87.5t-21.5 107zM97 251q0 -42 16 -79.5t44 -65.5t65.5 -44t79.5 -16t79.5 16t65.5 44t44 65.5t16 79.5
t-16 79.5t-44 65.5t-65.5 44t-79.5 16t-79.5 -16t-65.5 -44t-44 -65.5t-16 -79.5zM208 569q-17 0 -28 14.5t-6 30.5q17 31 61.5 44t85.5 -10q15 -9 26 -8t19 10q12 14 28 14q14 0 24.5 -10.5t10.5 -24.5q0 -8 -3 -15q-17 -29 -59 -40.5t-83 12.5q-15 10 -27.5 7t-25.5 -15
q-9 -9 -23 -9z" />
    <glyph glyph-name="Ntilde" unicode="&#xd1;" horiz-adv-x="546" 
d="M40 665q0 14 10.5 24.5t24.5 10.5h15q20 0 30 -17l316 -543v525q0 14 10.5 24.5t24.5 10.5t24.5 -10.5t10.5 -24.5v-3v-627q0 -14 -10.5 -24.5t-24.5 -10.5h-3h-12q-21 0 -31 19l-315 541v-522v-3q0 -14 -10.5 -24.5t-24.5 -10.5t-24.5 10.5t-10.5 24.5v630zM175 761
q-17 0 -28 14.5t-6 30.5q17 31 61.5 44t85.5 -10q15 -9 26 -8t19 10q12 14 28 14q14 0 24.5 -10.5t10.5 -24.5q0 -8 -3 -15q-17 -29 -59 -40.5t-83 12.5q-15 10 -27.5 7t-25.5 -15q-9 -9 -23 -9z" />
    <glyph glyph-name="Otilde" unicode="&#xd5;" horiz-adv-x="809" 
d="M28 350q0 77 29.5 145t80.5 119t119 80.5t145 29.5t145 -29.5t119 -80.5t80.5 -119t29.5 -145t-29.5 -145t-80.5 -119t-119 -80.5t-145 -29.5t-145 29.5t-119 80.5t-80.5 119t-29.5 145zM98 350q0 -62 24 -117.5t65.5 -97t97 -65.5t117.5 -24t117 24t96.5 65.5t65.5 97
t24 117.5t-24 117t-65.5 96.5t-96.5 65.5t-117 24t-117.5 -24t-97 -65.5t-65.5 -96.5t-24 -117zM309 767q-17 0 -28 14.5t-6 30.5q17 31 61.5 44t85.5 -10q15 -9 26 -8t19 10q12 14 28 14q14 0 24.5 -10.5t10.5 -24.5q0 -8 -3 -15q-17 -29 -59 -40.5t-83 12.5
q-15 10 -27.5 7t-25.5 -15q-9 -9 -23 -9z" />
    <glyph glyph-name="ccedilla" unicode="&#xe7;" horiz-adv-x="583" 
d="M465 135q8 14 19 23.5t25 7.5q16 -2 23 -15t2 -28q-6 -22 -29 -48q-46 -56 -96 -77.5t-107 -21.5t-107 21.5t-87.5 59t-59 87.5t-21.5 107t21.5 107t59 87.5t87.5 59t107 21.5t107 -21.5t96 -71.5q26 -31 30 -54q3 -15 -2 -25.5t-18 -13.5q-17 -4 -27.5 6.5t-21.5 23.5
q-33 48 -77.5 67t-86.5 19t-79.5 -16t-65.5 -44t-44 -65.5t-16 -79.5t16 -79.5t44 -65.5t65.5 -44t79.5 -16t83.5 19.5t79.5 69.5zM256 -87v107h70v-75q21 0 40.5 -8.5t33.5 -22.5t22.5 -33t8.5 -41t-8.5 -41t-22.5 -33t-33.5 -22t-40.5 -8h-35q-14 0 -24.5 10.5t-10.5 24.5
t10.5 24.5t24.5 10.5h3h32q14 0 24 10t10 24t-10 24.5t-24 10.5h-32h-3q-14 0 -24.5 10.5t-10.5 24.5v3z" />
    <glyph glyph-name="Ccedilla" unicode="&#xc7;" horiz-adv-x="770" 
d="M98 350q0 -62 24 -117.5t65.5 -97t97 -65.5t117.5 -24t117 24t96 65q18 18 47 60q10 14 28 14q14 0 24.5 -10.5t10.5 -24.5q0 -5 -1 -8.5t-3 -7.5q-16 -33 -55 -72q-51 -51 -119 -80.5t-145 -29.5t-145 29.5t-119 80.5t-80.5 119t-29.5 145t29.5 145t80.5 119t119 80.5
t145 29.5t145 -29.5t119 -80.5q39 -39 56 -74q3 -8 3 -14q0 -14 -10.5 -24.5t-24.5 -10.5q-11 0 -18 6.5t-15 17.5q-24 31 -42 48q-41 42 -96 66t-117 24t-117.5 -24t-97 -65.5t-65.5 -96.5t-24 -117zM345 -87v107h70v-75q21 0 40.5 -8.5t33.5 -22.5t22.5 -33t8.5 -41
t-8.5 -41t-22.5 -33t-33.5 -22t-40.5 -8h-35q-14 0 -24.5 10.5t-10.5 24.5t10.5 24.5t24.5 10.5h3h32q14 0 24 10t10 24t-10 24.5t-24 10.5h-32h-3q-14 0 -24.5 10.5t-10.5 24.5v3z" />
    <glyph glyph-name="yacute" unicode="&#xfd;" horiz-adv-x="577" 
d="M225 -164v3v163q-28 5 -52 16q-41 18 -71.5 48.5t-48 71.5t-17.5 87v240q0 14 10.5 24.5t24.5 10.5t24.5 -10.5t10.5 -24.5v-240q1 -32 13 -60t33 -48.5t48.5 -32.5t59.5 -12t60 12t49 32.5t33 48.5t12 60v237v3q0 14 10.5 24.5t24.5 10.5t24.5 -10.5t10.5 -24.5v-3v-237
q0 -46 -17.5 -87t-48 -71.5t-71.5 -48.5q-25 -11 -52 -16v-163v-3q0 -14 -10.5 -24.5t-24.5 -10.5t-24.5 10.5t-10.5 24.5zM318 654q0 -6 -1 -9l-25 -62q-4 -10 -12.5 -15.5t-19.5 -5.5q-14 0 -24.5 10.5t-10.5 24.5q0 6 1 9l25 62q5 9 13 15t19 6q14 0 24.5 -10.5
t10.5 -24.5z" />
    <glyph glyph-name="ydieresis" unicode="&#xff;" horiz-adv-x="524" 
d="M225 -164v3v163q-28 5 -52 16q-41 18 -71.5 48.5t-48 71.5t-17.5 87v240q0 14 10.5 24.5t24.5 10.5t24.5 -10.5t10.5 -24.5v-240q1 -32 13 -60t33 -48.5t48.5 -32.5t59.5 -12t60 12t49 32.5t33 48.5t12 60v237v3q0 14 10.5 24.5t24.5 10.5t24.5 -10.5t10.5 -24.5v-3v-237
q0 -46 -17.5 -87t-48 -71.5t-71.5 -48.5q-25 -11 -52 -16v-163v-3q0 -14 -10.5 -24.5t-24.5 -10.5t-24.5 10.5t-10.5 24.5zM136 655q0 18 12 30t30 12t30 -12t12 -30t-12 -30t-30 -12t-30 12t-12 30zM296 655q0 18 12 30t30 12t30 -12t12 -30t-12 -30t-30 -12t-30 12t-12 30
z" />
    <glyph glyph-name="Scaron" unicode="&#x160;" horiz-adv-x="531" 
d="M154 865q0 14 10 24t24 10q18 0 28 -13l57 -71l57 69q5 6 12.5 10.5t16.5 4.5q10 0 18 -5.5t12.5 -13.5t4.5 -17t-5 -17l-58 -71q-5 -7 -12.5 -11.5t-16.5 -4.5h-54h-3q-13 0 -22 9q-2 1 -3.5 3.5t-7.5 9.5t-17.5 21.5t-32.5 40.5q-8 10 -8 22zM24 209q0 14 10.5 24.5
t24.5 10.5t24.5 -10.5t10.5 -24.5q0 -34 14.5 -64t39.5 -52t58.5 -35t70.5 -12q34 1 65 9t55 24.5t38.5 41t14.5 58.5q0 49 -27 79t-68.5 49.5t-91.5 35t-95 35.5t-79 50.5t-44 80.5q-5 43 12.5 82t50 68.5t77 47t92.5 17.5q54 0 94 -19t68 -45.5t43 -55.5q11 -20 15 -35
q7 -17 -2 -33t-29 -16q-14 0 -20.5 10.5t-14.5 24.5q-26 48 -67 73t-87 26q-31 1 -62 -10t-54.5 -30t-36 -45t-6.5 -55q8 -35 40.5 -55.5t77.5 -36.5t95 -32t92 -41.5t69.5 -65.5t27.5 -104q0 -48 -20 -86t-53.5 -64t-77.5 -39.5t-92 -13.5t-94 17t-81 47.5t-56.5 73.5
t-21.5 95z" />
    <glyph glyph-name="florin" unicode="&#x192;" horiz-adv-x="353" 
d="M270 566q-1 25 -18.5 44t-43.5 19t-44.5 -18.5t-18.5 -44.5v-223h90h3q15 0 25.5 -10.5t10.5 -25.5t-10.5 -25.5t-25.5 -10.5h-3h-90v-334q0 -28 -11 -52.5t-29.5 -42.5t-43.5 -28.5t-53 -10.5t-52.5 10.5t-42.5 28.5t-28.5 42.5t-10.5 52.5q0 15 10.5 25.5t25.5 10.5
t25.5 -10.5t10.5 -25.5q0 -26 18.5 -44.5t44.5 -18.5t45 18.5t19 44.5v334h-15q-15 0 -25.5 10.5t-10.5 25.5t10.5 25.5t25.5 10.5h15v223q0 28 10.5 52.5t28.5 42.5t42.5 28.5t52.5 10.5t52.5 -10.5t43 -28.5t28.5 -43q10 -23 11 -49v-3q0 -15 -10.5 -25.5t-25.5 -10.5
t-25.5 10.5t-10.5 25.5z" />
    <glyph glyph-name="sterling" unicode="&#xa3;" horiz-adv-x="363" 
d="M271 590q0 26 -19 44.5t-45 18.5t-44.5 -18.5t-18.5 -44.5v-224h91h3q14 0 24.5 -10.5t10.5 -24.5t-10.5 -24.5t-24.5 -10.5h-3h-91v-226h158h3q14 0 24.5 -10.5t10.5 -24.5t-10.5 -24.5t-24.5 -10.5h-3h-230v296h-16q-14 0 -24.5 10.5t-10.5 24.5t10.5 24.5t24.5 10.5
h16v224q0 28 10.5 52.5t28.5 42.5t42.5 28.5t52.5 10.5t52.5 -10.5t43 -28.5t28.5 -43q10 -23 11 -49v-3q0 -14 -10.5 -24.5t-24.5 -10.5t-24.5 10.5t-10.5 24.5z" />
    <glyph glyph-name="Dcaron" unicode="&#x10e;" horiz-adv-x="656" 
d="M133 865q0 14 10 24t24 10q18 0 28 -13l57 -71l57 69q5 6 12.5 10.5t16.5 4.5q10 0 18 -5.5t12.5 -13.5t4.5 -17t-5 -17l-58 -71q-5 -7 -12.5 -11.5t-16.5 -4.5h-54h-3q-13 0 -22 9q-2 1 -3.5 3.5t-7.5 9.5t-17.5 21.5t-32.5 40.5q-8 10 -8 22zM40 35v630q0 14 10.5 24.5
t24.5 10.5h200q72 0 136 -27.5t111 -74.5t74.5 -111t27.5 -136t-27.5 -136t-74.5 -112t-111 -75.5t-136 -27.5h-200q-14 0 -24.5 10.5t-10.5 24.5zM275 70q58 0 108.5 22t88.5 60.5t60 89.5t22 109t-22 108.5t-60 88.5t-88.5 60t-108.5 22h-165v-560h165z" />
    <glyph glyph-name="Odieresis" unicode="&#xd6;" horiz-adv-x="803" 
d="M28 350q0 77 29.5 145t80.5 119t119 80.5t145 29.5t145 -29.5t119 -80.5t80.5 -119t29.5 -145t-29.5 -145t-80.5 -119t-119 -80.5t-145 -29.5t-145 29.5t-119 80.5t-80.5 119t-29.5 145zM98 350q0 -62 24 -117.5t65.5 -97t97 -65.5t117.5 -24t117 24t96.5 65.5t65.5 97
t24 117.5t-24 117t-65.5 96.5t-96.5 65.5t-117 24t-117.5 -24t-97 -65.5t-65.5 -96.5t-24 -117zM279 838q0 18 12 30t30 12t30 -12t12 -30t-12 -30t-30 -12t-30 12t-12 30zM439 838q0 18 12 30t30 12t30 -12t12 -30t-12 -30t-30 -12t-30 12t-12 30z" />
    <glyph glyph-name="Udieresis" unicode="&#xdc;" horiz-adv-x="538" 
d="M432 665q0 14 10.5 24.5t24.5 10.5t24.5 -10.5t10.5 -24.5v-456q0 -49 -18 -91.5t-49.5 -74t-74 -49.5t-91.5 -18t-91.5 18t-74 49.5t-49.5 74t-18 91.5v453q0 17 10.5 27.5t24.5 10.5t24.5 -10.5t10.5 -24.5v-456q0 -34 12.5 -64t34.5 -52t52 -34.5t64 -12.5t64 12.5
t52 34.5t34.5 52t12.5 64v456zM153 840q0 18 12 30t30 12t30 -12t12 -30t-12 -30t-30 -12t-30 12t-12 30zM313 840q0 18 12 30t30 12t30 -12t12 -30t-12 -30t-30 -12t-30 12t-12 30z" />
    <glyph glyph-name="adieresis" unicode="&#xe4;" horiz-adv-x="620" 
d="M507 35v3v29l-11 -11q-37 -37 -87 -58.5t-107 -21.5t-107 21.5t-87.5 59t-59 87.5t-21.5 107t21.5 107t59 87.5t87.5 59t107 21.5t107 -21.5t87.5 -59t59 -87.5t21.5 -107v-216q0 -14 -10.5 -24.5t-24.5 -10.5t-24.5 10.5t-10.5 24.5zM97 251q0 -42 16 -79.5t44 -65.5
t65.5 -44t79.5 -16t79.5 16t65.5 44t44 65q14 34 16 71v9q0 42 -16 79.5t-44 65.5t-65.5 44t-79.5 16t-79.5 -16t-65.5 -44t-44 -65.5t-16 -79.5zM183 655q0 18 12 30t30 12t30 -12t12 -30t-12 -30t-30 -12t-30 12t-12 30zM343 655q0 18 12 30t30 12t30 -12t12 -30t-12 -30
t-30 -12t-30 12t-12 30z" />
    <glyph glyph-name="B" unicode="B" horiz-adv-x="533" 
d="M40 35v630q0 14 10.5 24.5t24.5 10.5h153q108 0 170 -50q60 -51 60 -139q0 -45 -15.5 -79t-44.5 -60q-2 -2 -4 -3q28 -11 50 -28q31 -29 47 -63.5t16 -82.5q0 -89 -63 -144q-65 -51 -175 -51h-194q-14 0 -24.5 10.5t-10.5 24.5zM387 104q43 36 43 92q0 60 -43 94
q-39 33 -117 33h-160v-252h160q78 0 117 33zM343 423q40 32 40 88q0 55 -40 89q-43 32 -113 32h-120v-241h150q46 0 83 32z" />
    <glyph glyph-name="I" unicode="I" horiz-adv-x="148" 
d="M40 665q0 14 10.5 24.5t24.5 10.5t24.5 -10.5t10.5 -24.5v-630q0 -14 -10.5 -24.5t-24.5 -10.5t-24.5 10.5t-10.5 24.5v630z" />
    <glyph glyph-name="H" unicode="H" horiz-adv-x="546" 
d="M40 665q0 14 10.5 24.5t24.5 10.5t24.5 -10.5t10.5 -24.5v-323h326v323q0 14 10.5 24.5t24.5 10.5t24.5 -10.5t10.5 -24.5v-630q0 -14 -10.5 -24.5t-24.5 -10.5t-24.5 10.5t-10.5 24.5v237h-326v-237q0 -14 -10.5 -24.5t-24.5 -10.5t-24.5 10.5t-10.5 24.5v630z" />
    <glyph glyph-name="A" unicode="A" horiz-adv-x="554" 
d="M490 0q-27 0 -34 25l-79 247h-201l-79 -249q-10 -23 -33 -23q-14 0 -24.5 10.5t-10.5 24.5q0 3 0.5 5.5t1.5 5.5l195 611q5 18 19 31t31 13q18 0 32 -13t19 -31l194 -607q7 -17 -2 -33.5t-29 -16.5zM199 342h156l-78 253z" />
    <glyph glyph-name="numbersign" unicode="#" horiz-adv-x="565" 
d="M415 675q4 14 16.5 21.5t26.5 2.5q14 -4 21 -16.5t3 -26.5l-45 -156h68q14 0 24.5 -10.5t10.5 -24.5t-10.5 -24.5t-24.5 -10.5h-88l-25 -86h79q14 0 24.5 -10.5t10.5 -24.5t-10.5 -24.5t-24.5 -10.5h-99l-71 -250q-4 -14 -16.5 -21t-26.5 -3t-21 16.5t-3 26.5l66 231h-88
l-71 -250q-4 -14 -16.5 -21t-26.5 -3t-21 16.5t-3 26.5l66 231h-73q-14 0 -24.5 10.5t-10.5 24.5t10.5 24.5t24.5 10.5h93l24 86h-83q-14 0 -24.5 10.5t-10.5 24.5t10.5 24.5t24.5 10.5h103l51 175q4 14 16.5 21.5t26.5 2.5q14 -4 21 -16.5t3 -26.5l-45 -156h87zM232 344h88
l24 86h-87z" />
    <glyph glyph-name="dollar" unicode="$" horiz-adv-x="546" 
d="M238 840q0 14 10.5 24.5t24.5 10.5t24.5 -10.5t10.5 -24.5v-118q35 -4 63 -17q40 -19 68 -45.5t43 -55.5q11 -20 15 -35q7 -17 -2 -33t-29 -16q-14 0 -20.5 10.5t-14.5 24.5q-26 48 -67 73q-27 16 -56 22v-253l23 -7q50 -16 92 -41.5t69.5 -65.5t27.5 -104q0 -48 -20 -86
t-53.5 -64t-77.5 -39q-30 -9 -61 -12v-108q0 -14 -10.5 -24.5t-24.5 -10.5t-24.5 10.5t-10.5 24.5v109q-28 4 -55 14q-46 17 -81 47.5t-56.5 73.5t-21.5 95q0 14 10.5 24.5t24.5 10.5t24.5 -10.5t10.5 -24.5q0 -34 14.5 -64t39.5 -52t58 -35q16 -6 32 -10v302q-37 13 -70 28
q-45 20 -79 50.5t-44 80.5q-5 43 12.5 82t50 68.5t76.5 46.5q26 10 54 15v119zM342 55q31 8 55 24.5t38.5 41t14.5 58.5q0 49 -27 79t-69 49q-22 11 -46 20v-279q17 2 34 7zM215 644q-31 -11 -54.5 -30t-36 -45t-6.5 -55q8 -35 40.5 -55.5t77.5 -36.5l2 -1v229
q-12 -2 -23 -6z" />
    <glyph glyph-name="cent" unicode="&#xa2;" horiz-adv-x="579" 
d="M264 666q0 14 10.5 24.5t24.5 10.5t24.5 -10.5t10.5 -24.5v-142q39 -4 75 -20q50 -21 96 -71q26 -31 30 -54q3 -15 -2 -25.5t-18 -13.5q-17 -4 -27.5 6.5t-21.5 23.5q-33 48 -78 67q-28 12 -54 16v-405q26 5 51 17q42 20 80 70q8 14 19 23.5t25 7.5q16 -2 23 -15t2 -28
q-6 -22 -29 -48q-46 -56 -96 -77q-36 -16 -75 -20v-144q0 -14 -10.5 -24.5t-24.5 -10.5t-24.5 10.5t-10.5 24.5v145q-36 5 -69 19q-50 21 -87.5 58.5t-59 87.5t-21.5 107t21.5 107t59 87.5t87.5 58.5q33 14 69 19v143zM222 440q-37 -16 -65 -44t-44 -65.5t-16 -79.5
t16 -79.5t44 -65.5t65 -44q20 -9 42 -13v403q-22 -4 -42 -12z" />
    <glyph glyph-name="yen" unicode="&#xa5;" horiz-adv-x="548" 
d="M36 309q0 14 10.5 24.5t24.5 10.5h130l-159 301q-2 4 -4 8.5t-2 11.5q0 14 10.5 24.5t24.5 10.5q16 0 22.5 -8t9.5 -13l170 -335h1l172 337q10 19 31 19q14 0 24.5 -10.5t10.5 -24.5q0 -4 -1 -8t-5 -11l-161 -302h132q14 0 24.5 -10.5t10.5 -24.5t-10.5 -24.5
t-24.5 -10.5h-168v-58h168q14 0 24.5 -10.5t10.5 -24.5t-10.5 -24.5t-24.5 -10.5h-168v-111q0 -14 -10.5 -24.5t-24.5 -10.5t-24.5 10.5t-10.5 24.5v111h-168q-14 0 -24.5 10.5t-10.5 24.5t10.5 24.5t24.5 10.5h168v57l-1 1h-167q-14 0 -24.5 10.5t-10.5 24.5z" />
    <glyph glyph-name="oslash" unicode="&#xf8;" horiz-adv-x="604" 
d="M27 251q0 57 21.5 107t59 87.5t87.5 59t107 21.5t107 -21.5t87.5 -59t59 -87.5t21.5 -107t-21.5 -107t-59 -87.5t-87.5 -59t-107 -21.5t-107 21.5t-87.5 59t-59 87.5t-21.5 107zM97 251q0 -42 16 -79.5t44 -65.5t65.5 -44t79.5 -16t79.5 16t65.5 44t44 65.5t16 79.5
t-16 79.5t-44 65.5t-65.5 44t-79.5 16t-79.5 -16t-65.5 -44t-44 -65.5t-16 -79.5zM367 579q5 14 17.5 20.5t26.5 1.5t20.5 -17.5t1.5 -26.5l-209 -630q-5 -14 -17.5 -20.5t-26.5 -1.5t-20.5 17.5t-1.5 26.5z" />
    <glyph glyph-name="Oslash" unicode="&#xd8;" horiz-adv-x="803" 
d="M28 350q0 77 29.5 145t80.5 119t119 80.5t145 29.5t145 -29.5t119 -80.5t80.5 -119t29.5 -145t-29.5 -145t-80.5 -119t-119 -80.5t-145 -29.5t-145 29.5t-119 80.5t-80.5 119t-29.5 145zM98 350q0 -62 24 -117.5t65.5 -97t97 -65.5t117.5 -24t117 24t96.5 65.5t65.5 97
t24 117.5t-24 117t-65.5 96.5t-96.5 65.5t-117 24t-117.5 -24t-97 -65.5t-65.5 -96.5t-24 -117zM473 676q5 14 17.5 20.5t26.5 1.5t20.5 -17.5t1.5 -26.5l-209 -630q-5 -14 -17.5 -20.5t-26.5 -1.5t-20.5 17.5t-1.5 26.5z" />
    <glyph glyph-name="mu" unicode="&#xb5;" horiz-adv-x="523" 
d="M37 465q0 14 10.5 24.5t24.5 10.5t24.5 -10.5t10.5 -24.5v-248q1 -28 12 -52q12 -28 33 -48.5t48.5 -32.5t59.5 -12t60 12t49 32.5t33 48.5t12 60v240q0 14 10.5 24.5t24.5 10.5t24.5 -10.5t10.5 -24.5v-240q0 -46 -17.5 -87t-48 -71.5t-71.5 -48.5t-87 -18t-87 18
q-37 16 -66 43v-226q0 -14 -10.5 -24.5t-24.5 -10.5t-24.5 10.5t-10.5 24.5v380v10v240z" />
    <glyph glyph-name="Euro" unicode="&#x20ac;" horiz-adv-x="843" 
d="M13 273q0 14 10.5 24.5t24.5 10.5h82q-2 21 -2 42q0 14 1 28h-81q-14 0 -24.5 10.5t-10.5 24.5t10.5 24.5t24.5 10.5h93q6 24 16 47q30 68 81 119t119 80.5t145 29.5t145 -29.5t119 -80.5q39 -39 56 -74q3 -8 3 -14q0 -14 -10.5 -24.5t-24.5 -10.5q-11 0 -18 6.5
t-15 17.5q-24 31 -42 48q-41 42 -96 66t-117 24t-117.5 -24t-97 -65.5t-65.5 -96.5q-4 -10 -8 -19h240q14 0 24.5 -10.5t10.5 -24.5t-10.5 -24.5t-24.5 -10.5h-255q-1 -14 -1 -28q0 -22 3 -42h253q14 0 24.5 -10.5t10.5 -24.5t-10.5 -24.5t-24.5 -10.5h-235q2 -3 3 -6
q24 -55 65.5 -96.5t97 -65.5t117.5 -24t117 24t96 65q18 18 47 60q10 14 28 14q14 0 24.5 -10.5t10.5 -24.5q0 -5 -1 -8.5t-3 -7.5q-16 -33 -55 -72q-51 -51 -119 -80.5t-145 -29.5t-145 29.5t-119 80.5t-81 119q-7 16 -12 33h-97q-14 0 -24.5 10.5t-10.5 24.5z" />
    <glyph glyph-name="divide" unicode="&#xf7;" horiz-adv-x="393" 
d="M27 250q0 14 10.5 24.5t24.5 10.5h271q14 0 24.5 -10.5t10.5 -24.5t-10.5 -24.5t-24.5 -10.5h-3h-265h-3q-14 0 -24.5 10.5t-10.5 24.5zM148 42q0 18 12 30t30 12t30 -12t12 -30t-12 -30t-30 -12t-30 12t-12 30zM148 458q0 18 12 30t30 12t30 -12t12 -30t-12 -30t-30 -12
t-30 12t-12 30z" />
    <glyph glyph-name="thorn" unicode="&#xfe;" horiz-adv-x="616" 
d="M37 665q0 14 10.5 24.5t24.5 10.5t24.5 -10.5t10.5 -24.5v-245q28 45 88 75.5t117 30.5t107 -21.5t87.5 -59t59 -87.5t21.5 -107t-21.5 -107t-59 -87.5t-87.5 -59t-107 -21.5t-107 21.5t-88 58.5q-5 6 -10 11v-231q0 -14 -10.5 -24.5t-24.5 -10.5t-24.5 10.5t-10.5 24.5
v829zM107 251q0 -42 16 -79.5t44 -65.5t65.5 -44t79.5 -16t79.5 16t65.5 44t44 65.5t16 79.5t-16 79.5t-44 65.5t-65.5 44t-79.5 16t-79.5 -16t-65.5 -44t-44 -66q-14 -33 -16 -69v-10z" />
    <glyph glyph-name="OE" unicode="&#x152;" horiz-adv-x="902" 
d="M412 700h431q14 0 24.5 -10.5t10.5 -24.5t-10.5 -24.5t-24.5 -10.5h-361v-288h291q14 0 24.5 -10.5t10.5 -24.5t-10.5 -24.5t-24.5 -10.5h-291v-202h361q14 0 24.5 -10.5t10.5 -24.5t-10.5 -24.5t-24.5 -10.5h-431q-77 0 -145 17.5t-119 68.5t-80.5 119t-29.5 145
t29.5 145t80.5 119t119 68.5t145 17.5zM108 350q0 -62 24 -117.5t65.5 -97t97 -53.5t117.5 -12v559q-62 0 -117.5 -12t-97 -53.5t-65.5 -96.5t-24 -117z" />
    <glyph glyph-name="Thorn" unicode="&#xde;" horiz-adv-x="508" 
d="M40 665q0 14 10.5 24.5t24.5 10.5t24.5 -10.5t10.5 -24.5v-105h138q108 0 170 -50q60 -51 60 -153q0 -62 -15.5 -96t-44.5 -60q-62 -49 -170 -49h-138v-117q0 -14 -10.5 -24.5t-24.5 -10.5t-24.5 10.5t-10.5 24.5v630zM363 252q40 32 40 105q0 69 -40 103q-43 32 -113 32
h-140v-272h140q70 0 113 32z" />
    <glyph glyph-name="Eth" unicode="&#xd0;" horiz-adv-x="748" 
d="M139 35v279h-86q-14 0 -24.5 10.5t-10.5 24.5t10.5 24.5t24.5 10.5h86v281q0 14 10.5 24.5t24.5 10.5h200q72 0 136 -27.5t111 -74.5t74.5 -111t27.5 -136t-27.5 -136t-74.5 -112t-111 -75.5t-136 -27.5h-200q-14 0 -24.5 10.5t-10.5 24.5zM374 70q58 0 108.5 22
t88.5 60.5t60 89.5t22 109t-22 108.5t-60 88.5t-88.5 60t-108.5 22h-165v-246h115q14 0 24.5 -10.5t10.5 -24.5t-10.5 -24.5t-24.5 -10.5h-115v-244h165z" />
    <glyph glyph-name="igrave" unicode="&#xec;" 
d="M32 465q0 14 10.5 24.5t24.5 10.5t24.5 -10.5t10.5 -24.5v-430q0 -14 -10.5 -24.5t-24.5 -10.5t-24.5 10.5t-10.5 24.5v430zM6 653q0 14 10.5 24.5t24.5 10.5q11 0 19 -6t13 -15l25 -62q1 -3 1 -9q0 -14 -10.5 -24.5t-24.5 -10.5q-11 0 -19.5 5.5t-12.5 15.5l-25 62
q-1 3 -1 9z" />
    <glyph glyph-name="iacute" unicode="&#xed;" 
d="M32 465q0 14 10.5 24.5t24.5 10.5t24.5 -10.5t10.5 -24.5v-430q0 -14 -10.5 -24.5t-24.5 -10.5t-24.5 10.5t-10.5 24.5v430zM126 653q0 -6 -1 -9l-25 -62q-4 -10 -12.5 -15.5t-19.5 -5.5q-14 0 -24.5 10.5t-10.5 24.5q0 6 1 9l25 62q5 9 13 15t19 6q14 0 24.5 -10.5
t10.5 -24.5z" />
    <glyph glyph-name="icircumflex" unicode="&#xee;" 
d="M32 465q0 14 10.5 24.5t24.5 10.5t24.5 -10.5t10.5 -24.5v-430q0 -14 -10.5 -24.5t-24.5 -10.5t-24.5 10.5t-10.5 24.5v430zM-57 594q0 12 8 22q21 26 32.5 40.5t17.5 21.5t7.5 9t3.5 4q9 9 22 9h3h54q9 0 16.5 -4.5t12.5 -11.5l58 -71q5 -8 5 -17t-4.5 -17t-12.5 -13.5
t-18 -5.5q-9 0 -16.5 4.5t-12.5 10.5l-57 69l-57 -71q-10 -13 -28 -13q-14 0 -24 10t-10 24z" />
    <glyph glyph-name="idieresis" unicode="&#xef;" 
d="M32 465q0 14 10.5 24.5t24.5 10.5t24.5 -10.5t10.5 -24.5v-430q0 -14 -10.5 -24.5t-24.5 -10.5t-24.5 10.5t-10.5 24.5v430zM-55 654q0 18 12 30t30 12t30 -12t12 -30t-12 -30t-30 -12t-30 12t-12 30zM105 654q0 18 12 30t30 12t30 -12t12 -30t-12 -30t-30 -12t-30 12
t-12 30z" />
  </font>
</defs>
</svg>
